<svg class="animated" id="freepik_stories-diving" xmlns="http://www.w3.org/2000/svg" viewBox="0 0 500 500" version="1.1" xmlns:xlink="http://www.w3.org/1999/xlink" xmlns:svgjs="http://svgjs.com/svgjs"><style>svg#freepik_stories-diving:not(.animated) .animable {opacity: 0;}svg#freepik_stories-diving.animated #freepik--Character--inject-36 {animation: 6s Infinite  linear floating;animation-delay: 0s;}            @keyframes floating {                0% {                    opacity: 1;                    transform: translateY(0px);                }                50% {                    transform: translateY(-10px);                }                100% {                    opacity: 1;                    transform: translateY(0px);                }            }        </style><g id="freepik--Water--inject-36" class="animable" style="transform-origin: 249.975px 249.57px;"><g id="freepik--Background--inject-36" class="animable" style="transform-origin: 249.975px 249.57px;"><path d="M184.08,42C139.64,28.8,98,46.21,81.1,62.2c-13.71,13-24.91,34,.29,34.82,39.88,1.32,49.76,7.67,60.91,16.11,8.26,6.26,14,27.25-18,38.62-26.87,9.55-56.24,7.19-88.88,43.89-42,47.17-32.13,134.94,19.4,190.21,23.36,25.07,53.06,43.43,84.35,56,18.43,7.42,68.45,25.42,140,18.33,95.42-9.45,150.25-67.14,174.94-108.67,26.23-44.1,39.23-97.95,36.12-149.55a183.36,183.36,0,0,0-19.81-72.76C454.29,97.91,428,71.3,394.69,60.41c-35-11.43-70.8-1.76-106.4-.76C250.37,60.7,228.26,55,184.08,42Z" style="fill: rgb(184, 115, 51); transform-origin: 249.938px 249.57px;" id="elmqsa7y18qt" class="animable"></path><g id="elvad90krjii"><path d="M184.08,42C139.64,28.8,98,46.21,81.1,62.2c-13.71,13-24.91,34,.29,34.82,39.88,1.32,49.76,7.67,60.91,16.11,8.26,6.26,14,27.25-18,38.62-26.87,9.55-56.24,7.19-88.88,43.89-42,47.17-32.13,134.94,19.4,190.21,23.36,25.07,53.06,43.43,84.35,56,18.43,7.42,68.45,25.42,140,18.33,95.42-9.45,150.25-67.14,174.94-108.67,26.23-44.1,39.23-97.95,36.12-149.55a183.36,183.36,0,0,0-19.81-72.76C454.29,97.91,428,71.3,394.69,60.41c-35-11.43-70.8-1.76-106.4-.76C250.37,60.7,228.26,55,184.08,42Z" style="fill: rgb(250, 250, 250); opacity: 0.5; transform-origin: 249.938px 249.57px;" class="animable"></path></g><path d="M88.69,109.34C60.9,118,55.11,140.43,67.85,149.83s29-2.89,48.64-7.23c9.62-2.12,13.81-12.68,9-21.62C120.36,111.63,105.64,104.05,88.69,109.34Z" style="fill: rgb(184, 115, 51); transform-origin: 94.4537px 130.441px;" id="elwdb9ah2peio" class="animable"></path><g id="eluh9tw2n1whg"><path d="M88.69,109.34C60.9,118,55.11,140.43,67.85,149.83s29-2.89,48.64-7.23c9.62-2.12,13.81-12.68,9-21.62C120.36,111.63,105.64,104.05,88.69,109.34Z" style="fill: rgb(250, 250, 250); opacity: 0.4; transform-origin: 94.4537px 130.441px;" class="animable"></path></g><path d="M23.73,144.26c0,6.36,6.54,14.1,17.91,10.12s14-22.14,2.25-25.89S23.67,134.49,23.73,144.26Z" style="fill: rgb(184, 115, 51); transform-origin: 37.6302px 141.569px;" id="el8lffi4e9x68" class="animable"></path><g id="elondkd1p8ob"><path d="M23.73,144.26c0,6.36,6.54,14.1,17.91,10.12s14-22.14,2.25-25.89S23.67,134.49,23.73,144.26Z" style="fill: rgb(250, 250, 250); opacity: 0.4; transform-origin: 37.6302px 141.569px;" class="animable"></path></g><g id="elj9fc7z0hth"><path d="M131.24,203.73c79.78,19.56,109.14-9.94,219.59-43.38,61.06-18.48,111.14-10,132.53,1.5a178.71,178.71,0,0,0-12.91-32.63A162,162,0,0,0,455,104.78C356.24,79.22,248.22,172.41,179.88,179c-51.9,5-77.94-7.69-112.17-9.26-.7.36-1.41.75-2.11,1.14l-.93.52c-.68.39-1.38.79-2.07,1.21l-1,.61-1.61,1-1.49,1-1.29.88c-.6.41-1.2.84-1.8,1.27l-1.22.9c-.47.35-.94.7-1.41,1.07l-.82.64c-.81.63-1.62,1.29-2.43,2l-.65.55c-.89.75-1.77,1.52-2.66,2.32q-.28.24-.57.51c-1,.89-2,1.81-3,2.77l-.3.3c-.56.54-1.12,1.1-1.68,1.66h0C60.13,189,85.88,192.61,131.24,203.73Z" style="fill: rgb(250, 250, 250); opacity: 0.2; transform-origin: 262.015px 155.175px;" class="animable"></path></g><g id="elgnk927salgp"><path d="M232.4,157.52c-39.84,19.27-50.51,29.63-89.05,17.94-22-6.68-39.2-11.91-54.1-14.26a106.71,106.71,0,0,0-34,16.22c18.68-1,37.05,2.19,61.72,8.08,34.77,8.3,63.2,13.42,105.61-9.66s61.6-38.57,88.53-48.76A557.55,557.55,0,0,0,232.4,157.52Z" style="fill: rgb(250, 250, 250); opacity: 0.2; transform-origin: 183.18px 159.79px;" class="animable"></path></g><g id="elsllruet2w5c"><path d="M216.06,351.53c-103.94-21.68-151.31-14.87-184.79,2h0q2.42,4.28,5.07,8.43l.12.18q2.61,4.08,5.47,8l.29.39c.83,1.14,1.68,2.27,2.54,3.39l.43.56c.94,1.22,1.91,2.43,2.89,3.62l.37.45c.84,1,1.7,2,2.57,3l.76.87c1,1.13,2,2.26,3,3.36h0c1.39,1.48,2.79,2.94,4.22,4.38l.33.34A205,205,0,0,0,75.6,405.13c14.81-10.24,40.88-22,83.43-23.5,77.88-2.69,158.62,29.46,230.13,4.19,29-10.26,48.21-19.56,61.38-28.46,1.27-2,2.47-3.92,3.6-5.83a262.45,262.45,0,0,0,31-80.66C412.49,373.66,313.51,371.86,216.06,351.53Z" style="fill: rgb(250, 250, 250); opacity: 0.2; transform-origin: 258.205px 338px;" class="animable"></path></g><g id="elda35t8l4lgj"><path d="M489.41,242.93q.93-9.33,1.19-18.69c-30.45-14.81-80.9-15.36-125.88,6.23-65.8,31.58-124.83,63.79-222.33,24.63C78.91,229.6,35,236,12.06,243.54h0c-.24,1.15-.47,2.31-.68,3.47-.06.32-.11.64-.16,1-.15.86-.3,1.73-.43,2.6-.06.36-.11.73-.16,1.09-.13.89-.25,1.78-.36,2.68l-.12.91c-.28,2.4-.49,4.82-.65,7.25l-.06,1q-.07,1.35-.12,2.7c0,.38,0,.76,0,1.13,0,.91,0,1.82-.06,2.74,0,.32,0,.65,0,1q0,3.71.16,7.45c0,.33,0,.66.05,1,.05.92.1,1.84.17,2.76,0,.39.05.78.08,1.17.07.92.16,1.84.24,2.76,0,.34.06.68.1,1q.38,3.76,1,7.54l.15,1c.15.94.3,1.88.46,2.81l.21,1.17c.17.92.34,1.84.53,2.76.06.35.13.7.2,1,.26,1.25.52,2.5.81,3.74C30,294.59,66,282,145.14,301.84c98,24.64,165.66-1.26,219.58-39.79C400.15,236.74,441.23,224.36,489.41,242.93Z" style="fill: rgb(250, 250, 250); opacity: 0.3; transform-origin: 249.93px 262.557px;" class="animable"></path></g><g id="elzigbu1aybf8"><path d="M378.6,188.52c-63.62,23.62-83.5,54.33-139.16,59.06-53.54,4.54-150.86-39-225.74-10.79-1,3.54-1.77,7.16-2.43,10.84l0,.19c-.21,1.18-.4,2.36-.57,3.55l0,.11a140.71,140.71,0,0,0-1.35,15.2c45.42-21.87,95.3-6.09,164.85,13.14,62.74,17.35,104.09,6.33,208.42-41.69,37.69-17.35,79.67-22.75,107.4-1.57a256,256,0,0,0,.29-34.58c-.16-2.71-.4-5.4-.68-8.1C467.09,179.62,419.11,173.47,378.6,188.52Z" style="fill: rgb(250, 250, 250); opacity: 0.2; transform-origin: 250.054px 233.672px;" class="animable"></path></g><g id="elw35qs952uqc"><path d="M346.37,193c-48.24,22.69-95,66.4-154.65,49.86,0,0,31.81,23.63,95.43-4.72,60.74-27.07,133.17-64,203.41-29.45-.07-2.24-.17-4.48-.3-6.7q-.56-9.18-2-18.27C444.85,157.92,389.5,172.7,346.37,193Z" style="fill: rgb(250, 250, 250); opacity: 0.2; transform-origin: 341.14px 211.028px;" class="animable"></path></g><g id="eltj0c6s3t5s"><path d="M454.14,351.53q4.56-7.66,8.57-15.71c-75.52,63.13-135,47.87-219.78,35.52-84.29-12.27-118.8-26.9-194.4,7.35q1.39,1.68,2.84,3.33c.14.16.28.33.43.49,1,1.13,2,2.24,3,3.34h0c1.27,1.36,2.56,2.69,3.86,4l1.07,1.07q1.76,1.76,3.56,3.46c.61.58,1.23,1.15,1.85,1.72l1.75,1.6a227.14,227.14,0,0,0,38.51,27.76c59-43.22,133.52-10.75,218.75-15.52,56.42-3.16,90.4-17.15,111.3-31.9A217.09,217.09,0,0,0,454.14,351.53Z" style="fill: rgb(250, 250, 250); opacity: 0.2; transform-origin: 255.62px 380.64px;" class="animable"></path></g><g id="el0i6jf31s2sth"><path d="M269.71,88c-39.66,18.44-50.4,28-81.24,19.31-28.5-8-53-21.85-96.8-9.77,31.41,2,40.5,7.95,50.61,15.61,30.77,7.24,54.6,22.27,90.12,6.92,40.39-17.45,63.37-43.05,87.71-43.15C320.11,76.89,309.36,69.53,269.71,88Z" style="fill: rgb(250, 250, 250); opacity: 0.2; transform-origin: 205.89px 101.086px;" class="animable"></path></g><g id="el8i4kgknknf"><path d="M243.82,57q-8.32,2.27-17.14,5.4c-40.62,14.48-62.59,2.41-95.08-12.07-6.07-2.71-11.51-5.07-16.35-7.13-12.76,4.17-23.39,10.07-30.77,16,31.12,1,56.78,31.69,112.11,27.58,39.49-2.93,53.11-18.22,75.32-27.18A213.13,213.13,0,0,1,243.82,57Z" style="fill: rgb(250, 250, 250); opacity: 0.2; transform-origin: 178.195px 65.1793px;" class="animable"></path></g><g id="elchgc25mra5q"><path d="M23.73,144.26c0,6.36,6.54,14.1,17.91,10.12,6.62-2.31,10.27-9.43,9.86-15.72a42.82,42.82,0,0,1-22-7.42A17.45,17.45,0,0,0,23.73,144.26Z" style="fill: rgb(250, 250, 250); opacity: 0.3; transform-origin: 37.6306px 143.355px;" class="animable"></path></g><g id="ellt2yz6ftu6b"><path d="M94.44,123.69c-7.23,4.19-19.12,12-33,14.34a15.45,15.45,0,0,0,6.41,11.8,17.5,17.5,0,0,0,10.59,3.45c9.22-4.58,15.88-10.87,24.43-18.59,9.3-8.39,17.53-11.26,23.35-12.07a16.3,16.3,0,0,0-.78-1.64,22.13,22.13,0,0,0-4.85-6C111.88,114.87,103.21,118.62,94.44,123.69Z" style="fill: rgb(250, 250, 250); opacity: 0.3; transform-origin: 93.83px 134.129px;" class="animable"></path></g></g></g><g id="freepik--Plants--inject-36" class="animable" style="transform-origin: 248.368px 386.405px;"><g id="freepik--plants--inject-36" class="animable" style="transform-origin: 385.055px 386.405px;"><path d="M444.22,422.17a22.35,22.35,0,0,1-1.44,5c-9.32,10.63-26.29,13.29-40.63,9.67l-8.36-6.93c-5-11.37-6.46-27.55.25-39.46a24.54,24.54,0,0,1,7.77-4,10.85,10.85,0,0,1-1.25,4c-1.15,2.24-2.77,4.25-3.73,6.59s-1.13,5.23.47,7.19a21.72,21.72,0,0,1,3-9.85c1.75-2.95,4.24-5.57,5.3-8.8a27.52,27.52,0,0,1,7.71-.18,4.66,4.66,0,0,1-.81,1.62c-1.11,1.36-2.54,2.44-3.66,3.8a20.84,20.84,0,0,0-2.64,4.64A149.88,149.88,0,0,0,400,411.67c3-1.85,3.79-5.73,5.26-8.93C407,399,409.8,396,412.61,393a33.45,33.45,0,0,0,4.62-5.69,11,11,0,0,0,.55-1.08,33.93,33.93,0,0,1,6.22,2.36c-.59,1.08-.86,2.21-1.8,3.78a24.55,24.55,0,0,1-4.6,5.7c-3.67,3.16-6.36,5.06-7,11.67,1.88-2.87,4.38-6.41,7-8.6,3.43-2.83,6.89-5.41,9.54-9a6.82,6.82,0,0,0,.74-1.42c.84.52,3,2.18,3.87,2.8a33.66,33.66,0,0,1-5.27,5.27c-2.71,2.09-6.29,4.15-8.46,6.79-2.89,3.52-4.69,7-8.21,9.93,4.41-1.17,6.63-5,10-8,1.63-1.43,4.76-2.79,6.52-4,2.95-2.12,5-4.77,7.28-7.59.13-.15.25-.31.39-.49a21.13,21.13,0,0,1,3,2.87,23.25,23.25,0,0,1-2,2.69,33.52,33.52,0,0,1-9.3,6.86c-2,1-4.35,1.95-5.56,3.89,3-3,8.67-.55,12.22-2.93,2.13-1.43,3-4.3,5.29-5.47a16.52,16.52,0,0,1,2.57-.87,27.46,27.46,0,0,1,2.24,4.22,4.67,4.67,0,0,0-.58.23,13.32,13.32,0,0,0-3.72,3.23,9.46,9.46,0,0,1-4,2.9c-1.62.49-3.38.16-5,.53-2.3.52-4.05,2.32-5.84,3.86s-4.06,2.95-6.36,2.45a9.53,9.53,0,0,0,8.84-1c1.46-1,2.75-2.51,4.51-2.71s3.39.92,5.12.77c2.94-.24,4.48-3.78,7.26-4.76a7,7,0,0,1,1.36-.3,26.55,26.55,0,0,1,.54,5.43,14,14,0,0,0-1.45.64c-1.94,1-3.69,2.35-5.74,3.07a33.55,33.55,0,0,1-5.75,1.09,9.34,9.34,0,0,0-5.24,2.37c3.46-1.61,7.62.85,11.29-.15,1.58-.44,2.94-1.49,4.53-1.89A10.07,10.07,0,0,1,444.22,422.17Z" style="fill: rgb(69, 90, 100); transform-origin: 417.051px 411.789px;" id="eljvh2w2ab1k7" class="animable"></path><g id="freepik--Algae--inject-36" class="animable" style="transform-origin: 394.819px 366.745px;"><path d="M404.14,340.26c1.38,5.16,2.28,10.78.35,15.76-3,7.63-11.65,11.64-15.35,18.94-4.38,8.63-.84,19.85-5.76,28.19-2.06,3.49-5.49,6.2-6.73,10.07a9.91,9.91,0,0,0,8.73,12.92c2.66-4.05,7.77-5.92,10.54-9.89,3.46-4.94,2.38-11.64,1-17.52s-2.81-12.39.12-17.66c2.05-3.67,5.84-6,8.83-8.92a25.89,25.89,0,0,0,7.59-18.76c-.13-5.36-1.93-10.52-3.83-15.54s-3.27-8.13-4.31-13.39c-.94-4.77.91-11,3.68-17.11a33.85,33.85,0,0,0-7.39,15.11C400.4,328.77,402.52,334.23,404.14,340.26Z" style="fill: rgb(184, 115, 51); transform-origin: 394.819px 366.745px;" id="elp5fwfs81a6e" class="animable"></path><g id="elw8a0s6g0qh"><path d="M404.14,340.26c1.38,5.16,2.28,10.78.35,15.76-3,7.63-11.65,11.64-15.35,18.94-4.38,8.63-.84,19.85-5.76,28.19-2.06,3.49-5.49,6.2-6.73,10.07a9.91,9.91,0,0,0,8.73,12.92c2.66-4.05,7.77-5.92,10.54-9.89,3.46-4.94,2.38-11.64,1-17.52s-2.81-12.39.12-17.66c2.05-3.67,5.84-6,8.83-8.92a25.89,25.89,0,0,0,7.59-18.76c-.13-5.36-1.93-10.52-3.83-15.54s-3.27-8.13-4.31-13.39c-.94-4.77.91-11,3.68-17.11a33.85,33.85,0,0,0-7.39,15.11C400.4,328.77,402.52,334.23,404.14,340.26Z" style="opacity: 0.2; transform-origin: 394.819px 366.745px;" class="animable"></path></g><g id="eltmo44axprm9"><path d="M404.14,340.26c1.38,5.16,2.28,10.78.35,15.76-3,7.63-11.65,11.64-15.35,18.94-4.38,8.63-.84,19.85-5.76,28.19-2.06,3.49-5.49,6.2-6.73,10.07a10.06,10.06,0,0,0,1.22,8.58,9.91,9.91,0,0,0,3.06,2.88c5.08-6,9.58-12.79,8.72-23.59-.9-11.25-.95-18.92,12.39-31.86s7.32-23.16,3.25-34S404.09,315,409,307.35a33.85,33.85,0,0,0-7.39,15.11C400.4,328.77,402.52,334.23,404.14,340.26Z" style="opacity: 0.1; transform-origin: 393.211px 366.015px;" class="animable"></path></g></g><g id="freepik--algae--inject-36" class="animable" style="transform-origin: 374.789px 387.989px;"><path d="M364.1,412.76c.52-3.88,2.62-7.83,4.53-11.21a11.75,11.75,0,0,0,.67-10.44c-1.45-3.93-4.23-6.92-5.38-11a16.6,16.6,0,0,1,1.3-12.69c1.67-3,3.71-6.06,3.91-9.51.16-2.75-.87-5.4-1.48-8.08-.35-1.57-.35-3.62,1.1-4.33a3.5,3.5,0,0,1,3.16.51,15,15,0,0,1,6.26,6.83c4.11,9.22-.94,13.2-1,20.18-.06,3.52,2.45,7.42,4,10.55s4.14,5.69,4.93,9.05c1.36,5.76-3,11.34-3.25,17.25-.18,4.91,1.72,9-.79,13.6a8.63,8.63,0,0,1-3.63,3.67c-3.38,1.63-6.42-1-8.83-3.24C366.52,421.15,363.51,417.12,364.1,412.76Z" style="fill: rgb(184, 115, 51); transform-origin: 374.789px 386.487px;" id="elphf75zv6jdb" class="animable"></path><g id="elaxiygmowll8"><path d="M364.1,412.76c.52-3.88,2.62-7.83,4.53-11.21a11.75,11.75,0,0,0,.67-10.44c-1.45-3.93-4.23-6.92-5.38-11a16.6,16.6,0,0,1,1.3-12.69c1.67-3,3.71-6.06,3.91-9.51.16-2.75-.87-5.4-1.48-8.08-.35-1.57-.35-3.62,1.1-4.33a3.5,3.5,0,0,1,3.16.51,15,15,0,0,1,6.26,6.83c4.11,9.22-.94,13.2-1,20.18-.06,3.52,2.45,7.42,4,10.55s4.14,5.69,4.93,9.05c1.36,5.76-3,11.34-3.25,17.25-.18,4.91,1.72,9-.79,13.6a8.63,8.63,0,0,1-3.63,3.67c-3.38,1.63-6.42-1-8.83-3.24C366.52,421.15,363.51,417.12,364.1,412.76Z" style="opacity: 0.1; transform-origin: 374.789px 386.487px;" class="animable"></path></g><path d="M373,353.33a10.66,10.66,0,0,1,.54,4.92,26.92,26.92,0,0,1-1.05,4.87c-.92,3.18-2.06,6.33-2.23,9.59a12.94,12.94,0,0,0,.59,4.76,13.93,13.93,0,0,0,1,2.21l1.17,2.18a67.55,67.55,0,0,1,4.47,9,20.22,20.22,0,0,1,.86,10.17c-.1.85-.31,1.67-.48,2.51l-.55,2.41c-.36,1.61-.69,3.21-1,4.82a43.8,43.8,0,0,0-.73,9.65,18.13,18.13,0,0,0,2.55,8.83l-2.32,1.4a20.71,20.71,0,0,1-2.59-10.14,46.47,46.47,0,0,1,1.1-10.11c.34-1.65.73-3.27,1.15-4.89s.89-3.19,1.17-4.76a18.69,18.69,0,0,0-.47-9.45,67.47,67.47,0,0,0-4.09-8.94l-1.1-2.24a13.29,13.29,0,0,1-1.42-7.43c.31-3.38,1.57-6.51,2.59-9.64a27.55,27.55,0,0,0,1.21-4.79A10.71,10.71,0,0,0,373,353.33Z" style="fill: rgb(250, 250, 250); transform-origin: 374.074px 391.99px;" id="elho4xypdbc9k" class="animable"></path></g><g id="freepik--Rock--inject-36" class="animable" style="transform-origin: 363.835px 438.295px;"><polygon points="364.04 412.11 347.75 426.15 342.82 435.43 354.62 435.64 370.24 440.59 372.9 430.78 365.01 422.4 364.04 412.11" style="fill: rgb(184, 115, 51); transform-origin: 357.86px 426.35px;" id="elh2jb54v6gwu" class="animable"></polygon><g id="elaut3b9scawl"><polygon points="364.04 412.11 347.75 426.15 342.82 435.43 354.62 435.64 370.24 440.59 372.9 430.78 365.01 422.4 364.04 412.11" style="opacity: 0.3; transform-origin: 357.86px 426.35px;" class="animable"></polygon></g><polygon points="364.04 412.11 374.95 411.13 378.67 421.82 372.9 430.78 365.01 422.4 364.04 412.11" style="fill: rgb(184, 115, 51); transform-origin: 371.355px 420.955px;" id="elnkqh4wn47qa" class="animable"></polygon><g id="el32rewi13efg"><polygon points="364.04 412.11 374.95 411.13 378.67 421.82 372.9 430.78 365.01 422.4 364.04 412.11" style="opacity: 0.35; transform-origin: 371.355px 420.955px;" class="animable"></polygon></g><polygon points="392.24 420.89 394.83 429.3 386.66 427.79 377.88 433.87 374.34 439.7 372.39 450.49 370.97 465.46 364.71 453.55 370.24 440.59 376.2 431.83 385.97 426.93 392.24 420.89" style="fill: rgb(184, 115, 51); transform-origin: 379.77px 443.175px;" id="el4pw8nmzx6r" class="animable"></polygon><polygon points="386.51 455 398.36 442.06 391.4 432.7 386.51 455" style="fill: rgb(184, 115, 51); transform-origin: 392.435px 443.85px;" id="elbw42gl3gb76" class="animable"></polygon><g id="elaghxl5bgctt"><g style="opacity: 0.5; transform-origin: 381.535px 443.175px;" class="animable"><polygon points="392.24 420.89 394.83 429.3 386.66 427.79 377.88 433.87 374.34 439.7 372.39 450.49 370.97 465.46 364.71 453.55 370.24 440.59 376.2 431.83 385.97 426.93 392.24 420.89" id="elpeq37mzgag" class="animable" style="transform-origin: 379.77px 443.175px;"></polygon><polygon points="386.51 455 398.36 442.06 391.4 432.7 386.51 455" id="elmj7bfl20bci" class="animable" style="transform-origin: 392.435px 443.85px;"></polygon></g></g><polygon points="354.54 420.3 349.06 428.64 348.11 433.02 354.57 432.5 370.24 440.59 354.62 435.64 342.82 435.43 347.75 426.15 354.54 420.3" style="fill: rgb(184, 115, 51); transform-origin: 356.53px 430.445px;" id="eleufm3elneu9" class="animable"></polygon><polygon points="374.95 411.13 376.1 421.62 370.86 428.61 372.9 430.78 378.67 421.82 374.95 411.13" style="fill: rgb(184, 115, 51); transform-origin: 374.765px 420.955px;" id="el8i5ahuk1tk4" class="animable"></polygon><polygon points="364.71 453.55 356.27 453.11 338.8 450.08 327.16 443.64 330.24 437.44 336.4 435.56 331.61 438.5 331.36 442.6 337.72 446.27 363.46 451.29 370.24 440.59 364.71 453.55" style="fill: rgb(184, 115, 51); transform-origin: 348.7px 444.555px;" id="eln0segg0264m" class="animable"></polygon><g id="el4d4rsaafwos"><g style="opacity: 0.25; transform-origin: 352.915px 432.34px;" class="animable"><polygon points="354.54 420.3 349.06 428.64 348.11 433.02 354.57 432.5 370.24 440.59 354.62 435.64 342.82 435.43 347.75 426.15 354.54 420.3" id="elymzp7zb9e6" class="animable" style="transform-origin: 356.53px 430.445px;"></polygon><polygon points="374.95 411.13 376.1 421.62 370.86 428.61 372.9 430.78 378.67 421.82 374.95 411.13" id="elnny460bsmf" class="animable" style="transform-origin: 374.765px 420.955px;"></polygon><polygon points="364.71 453.55 356.27 453.11 338.8 450.08 327.16 443.64 330.24 437.44 336.4 435.56 331.61 438.5 331.36 442.6 337.72 446.27 363.46 451.29 370.24 440.59 364.71 453.55" id="elfdla8n4ol9h" class="animable" style="transform-origin: 348.7px 444.555px;"></polygon></g></g><polygon points="347.75 426.15 336.4 435.56 331.61 438.5 331.36 442.6 337.72 446.27 363.46 451.29 365.38 448.26 355.79 441.58 349.51 442.95 342.82 435.43 347.75 426.15" style="fill: rgb(184, 115, 51); transform-origin: 348.37px 438.72px;" id="el9lz2tksq0a8" class="animable"></polygon><g id="elqw8vfiat0w"><polygon points="347.75 426.15 336.4 435.56 331.61 438.5 331.36 442.6 337.72 446.27 363.46 451.29 365.38 448.26 355.79 441.58 349.51 442.95 342.82 435.43 347.75 426.15" style="opacity: 0.35; transform-origin: 348.37px 438.72px;" class="animable"></polygon></g><polygon points="374.95 411.13 392.24 420.89 385.97 426.93 376.2 431.83 370.24 440.59 372.9 430.78 378.67 421.82 374.95 411.13" style="fill: rgb(184, 115, 51); transform-origin: 381.24px 425.86px;" id="ell6z056l3aj" class="animable"></polygon><polygon points="386.66 427.79 377.88 433.87 374.34 439.7 372.39 450.49 376.54 459.7 386.51 455 391.4 432.7 386.66 427.79" style="fill: rgb(184, 115, 51); transform-origin: 381.895px 443.745px;" id="elrrwcyr2q5c8" class="animable"></polygon><polygon points="342.82 435.43 349.51 442.95 355.79 441.58 354.62 435.64 342.82 435.43" style="fill: rgb(184, 115, 51); transform-origin: 349.305px 439.19px;" id="eldyl1vov4gsp" class="animable"></polygon><polygon points="337.14 456.38 342.58 456.97 344.78 453.71 356.27 453.11 338.8 450.08 337.14 456.38" style="fill: rgb(184, 115, 51); transform-origin: 346.705px 453.525px;" id="el0u2fh7ih7n3" class="animable"></polygon><g id="elcptrnzanblw"><g style="opacity: 0.45; transform-origin: 364.69px 435.415px;" class="animable"><polygon points="374.95 411.13 392.24 420.89 385.97 426.93 376.2 431.83 370.24 440.59 372.9 430.78 378.67 421.82 374.95 411.13" id="elpan1hr54t1b" class="animable" style="transform-origin: 381.24px 425.86px;"></polygon><polygon points="386.66 427.79 377.88 433.87 374.34 439.7 372.39 450.49 376.54 459.7 386.51 455 391.4 432.7 386.66 427.79" id="elz8adphj4hzr" class="animable" style="transform-origin: 381.895px 443.745px;"></polygon><polygon points="342.82 435.43 349.51 442.95 355.79 441.58 354.62 435.64 342.82 435.43" id="ela8feqqxlb1a" class="animable" style="transform-origin: 349.305px 439.19px;"></polygon><polygon points="337.14 456.38 342.58 456.97 344.78 453.71 356.27 453.11 338.8 450.08 337.14 456.38" id="elzudeu0yudj" class="animable" style="transform-origin: 346.705px 453.525px;"></polygon></g></g><polygon points="361.19 453.36 356.27 453.11 352.4 459.13 357.9 464.64 361.19 453.36" style="fill: rgb(184, 115, 51); transform-origin: 356.795px 458.875px;" id="el3136zhsd51p" class="animable"></polygon><g id="elt54qdg7vbhe"><polygon points="361.19 453.36 356.27 453.11 352.4 459.13 357.9 464.64 361.19 453.36" style="opacity: 0.35; transform-origin: 356.795px 458.875px;" class="animable"></polygon></g><polygon points="394.83 429.3 402.15 436.81 398.36 442.06 391.4 432.7 386.66 427.79 394.83 429.3" style="fill: rgb(184, 115, 51); transform-origin: 394.405px 434.925px;" id="el12qcl6fjmys" class="animable"></polygon><polygon points="370.97 465.46 376.54 459.7 372.39 450.49 370.97 465.46" style="fill: rgb(184, 115, 51); transform-origin: 373.755px 457.975px;" id="elbvpuqajardj" class="animable"></polygon><polygon points="370.24 440.59 365.38 448.26 355.79 441.58 354.62 435.64 370.24 440.59" style="fill: rgb(184, 115, 51); transform-origin: 362.43px 441.95px;" id="elscpbiez8hwg" class="animable"></polygon><polygon points="327.16 443.64 325.52 451.2 337.14 456.38 338.8 450.08 327.16 443.64" style="fill: rgb(184, 115, 51); transform-origin: 332.16px 450.01px;" id="elf9w16exse5" class="animable"></polygon><polygon points="370.97 465.46 357.9 464.64 361.19 453.36 364.71 453.55 370.97 465.46" style="fill: rgb(184, 115, 51); transform-origin: 364.435px 459.41px;" id="elreyjqxobjli" class="animable"></polygon><polygon points="342.58 456.97 352.4 459.13 356.27 453.11 344.78 453.71 342.58 456.97" style="fill: rgb(184, 115, 51); transform-origin: 349.425px 456.12px;" id="eluriekl1fnuh" class="animable"></polygon><g id="elhifs7i51pd5"><g style="opacity: 0.4; transform-origin: 363.835px 446.625px;" class="animable"><polygon points="394.83 429.3 402.15 436.81 398.36 442.06 391.4 432.7 386.66 427.79 394.83 429.3" id="elu2yv3gignn" class="animable" style="transform-origin: 394.405px 434.925px;"></polygon><polygon points="370.97 465.46 376.54 459.7 372.39 450.49 370.97 465.46" id="els4q7eqfgb49" class="animable" style="transform-origin: 373.755px 457.975px;"></polygon><polygon points="370.24 440.59 365.38 448.26 355.79 441.58 354.62 435.64 370.24 440.59" id="el7hejtsnauz" class="animable" style="transform-origin: 362.43px 441.95px;"></polygon><polygon points="327.16 443.64 325.52 451.2 337.14 456.38 338.8 450.08 327.16 443.64" id="elv5k019m8f5" class="animable" style="transform-origin: 332.16px 450.01px;"></polygon><polygon points="370.97 465.46 357.9 464.64 361.19 453.36 364.71 453.55 370.97 465.46" id="elvmox9jz72rj" class="animable" style="transform-origin: 364.435px 459.41px;"></polygon><polygon points="342.58 456.97 352.4 459.13 356.27 453.11 344.78 453.71 342.58 456.97" id="elitk4cnems1k" class="animable" style="transform-origin: 349.425px 456.12px;"></polygon></g></g></g></g><g id="freepik--plants--inject-36" class="animable" style="transform-origin: 118.538px 387.05px;"><g id="freepik--algae--inject-36" class="animable" style="transform-origin: 69.339px 369.54px;"><path d="M62.13,342.78c-1.63,5.1-2.79,10.66-1.09,15.73,2.6,7.76,11.09,12.17,14.45,19.63,4,8.83-.09,19.87,4.44,28.43,1.9,3.58,5.2,6.45,6.26,10.37a9.92,9.92,0,0,1-9.33,12.5c-2.47-4.16-7.49-6.27-10.07-10.36C63.57,414,65,407.34,66.6,401.53s3.39-12.25.7-17.65c-1.87-3.77-5.55-6.24-8.4-9.32a25.86,25.86,0,0,1-6.7-19.1c.37-5.34,2.41-10.42,4.54-15.34s3.65-8,4.93-13.17c1.16-4.73-.4-11-2.88-17.27a33.77,33.77,0,0,1,6.68,15.44C66.39,331.48,64,336.83,62.13,342.78Z" style="fill: rgb(184, 115, 51); transform-origin: 69.339px 369.56px;" id="elgqwuiaveuxa" class="animable"></path><g id="elhs70wg5xujf"><path d="M62.13,342.78c-1.63,5.1-2.79,10.66-1.09,15.73,2.6,7.76,11.09,12.17,14.45,19.63,4,8.83-.09,19.87,4.44,28.43,1.9,3.58,5.2,6.45,6.26,10.37a9.92,9.92,0,0,1-9.33,12.5c-2.47-4.16-7.49-6.27-10.07-10.36C63.57,414,65,407.34,66.6,401.53s3.39-12.25.7-17.65c-1.87-3.77-5.55-6.24-8.4-9.32a25.86,25.86,0,0,1-6.7-19.1c.37-5.34,2.41-10.42,4.54-15.34s3.65-8,4.93-13.17c1.16-4.73-.4-11-2.88-17.27a33.77,33.77,0,0,1,6.68,15.44C66.39,331.48,64,336.83,62.13,342.78Z" style="opacity: 0.2; transform-origin: 69.339px 369.56px;" class="animable"></path></g><g id="el313hhqa0oqe"><path d="M62.13,342.78c-1.63,5.1-2.79,10.66-1.09,15.73,2.6,7.76,11.09,12.17,14.45,19.63,4,8.83-.09,19.87,4.44,28.43,1.9,3.58,5.2,6.45,6.26,10.37a10.08,10.08,0,0,1-1.63,8.52,9.84,9.84,0,0,1-3.18,2.73c-4.8-6.25-9-13.22-7.61-24,1.42-11.2,1.82-18.85-10.9-32.4s-6.23-23.48-1.66-34.15,2.14-20.12-2.42-28a33.77,33.77,0,0,1,6.68,15.44C66.39,331.48,64,336.83,62.13,342.78Z" style="opacity: 0.1; transform-origin: 70.977px 368.915px;" class="animable"></path></g></g><g id="freepik--algae--inject-36" class="animable" style="transform-origin: 149.931px 391.498px;"><path d="M153,366.49c1.88,4.55,3.38,9.56,2.21,14.34-1.79,7.32-9.24,12-11.74,19.11-3,8.4,1.62,18.22-1.88,26.41-1.46,3.43-4.27,6.32-4.94,10a9.13,9.13,0,0,0,9.51,10.74c1.95-4,6.39-6.32,8.44-10.28,2.56-4.92.78-10.9-1.18-16.1s-4.05-11-2-16.13c1.43-3.6,4.61-6.14,7-9.19a23.8,23.8,0,0,0,4.68-18c-.76-4.87-3-9.37-5.35-13.71s-4-7-5.53-11.7c-1.44-4.25-.49-10.13,1.3-16.06a31.2,31.2,0,0,0-4.93,14.68C148.16,356.46,150.75,361.18,153,366.49Z" style="fill: rgb(184, 115, 51); transform-origin: 149.931px 391.513px;" id="elnsmk3viif5" class="animable"></path><g id="eljzh5pvtnh0p"><path d="M153,366.49c1.88,4.55,3.38,9.56,2.21,14.34-1.79,7.32-9.24,12-11.74,19.11-3,8.4,1.62,18.22-1.88,26.41-1.46,3.43-4.27,6.32-4.94,10a9.13,9.13,0,0,0,9.51,10.74c1.95-4,6.39-6.32,8.44-10.28,2.56-4.92.78-10.9-1.18-16.1s-4.05-11-2-16.13c1.43-3.6,4.61-6.14,7-9.19a23.8,23.8,0,0,0,4.68-18c-.76-4.87-3-9.37-5.35-13.71s-4-7-5.53-11.7c-1.44-4.25-.49-10.13,1.3-16.06a31.2,31.2,0,0,0-4.93,14.68C148.16,356.46,150.75,361.18,153,366.49Z" style="opacity: 0.2; transform-origin: 149.931px 391.513px;" class="animable"></path></g><g id="eldvkwaznkixk"><path d="M153,366.49c1.88,4.55,3.38,9.56,2.21,14.34-1.79,7.32-9.24,12-11.74,19.11-3,8.4,1.62,18.22-1.88,26.41-1.46,3.43-4.27,6.32-4.94,10a9.29,9.29,0,0,0,2.15,7.68,9,9,0,0,0,3.13,2.27c3.92-6.11,7.21-12.82,5.13-22.57-2.17-10.16-3.12-17.14,7.5-30.55s3.9-22-1.12-31.44-3.51-18.28.06-25.85a31.2,31.2,0,0,0-4.93,14.68C148.16,356.46,150.75,361.18,153,366.49Z" style="opacity: 0.1; transform-origin: 148.359px 391.095px;" class="animable"></path></g></g><g id="freepik--algae--inject-36" class="animable" style="transform-origin: 84.8785px 386.9px;"><path d="M96.3,411.27c-.69-3.86-3-7.71-5-11a11.74,11.74,0,0,1-1.11-10.39c1.28-4,3.94-7.1,4.91-11.18a16.57,16.57,0,0,0-1.83-12.63c-1.79-3-4-5.9-4.31-9.34-.28-2.73.64-5.43,1.14-8.13.29-1.59.19-3.64-1.29-4.28a3.48,3.48,0,0,0-3.13.64,15.08,15.08,0,0,0-6,7.09c-3.71,9.38,1.5,13.15,1.9,20.12.2,3.52-2.14,7.51-3.54,10.71s-3.89,5.86-4.54,9.25c-1.11,5.81,3.52,11.2,4,17.09.38,4.9-1.35,9.07,1.36,13.55a8.62,8.62,0,0,0,3.78,3.52c3.44,1.49,6.37-1.29,8.68-3.61C94.24,419.75,97.07,415.6,96.3,411.27Z" style="fill: rgb(184, 115, 51); transform-origin: 84.8785px 385.449px;" id="el47nf9dp6ej" class="animable"></path><g id="elu3628btbur"><path d="M96.3,411.27c-.69-3.86-3-7.71-5-11a11.74,11.74,0,0,1-1.11-10.39c1.28-4,3.94-7.1,4.91-11.18a16.57,16.57,0,0,0-1.83-12.63c-1.79-3-4-5.9-4.31-9.34-.28-2.73.64-5.43,1.14-8.13.29-1.59.19-3.64-1.29-4.28a3.48,3.48,0,0,0-3.13.64,15.08,15.08,0,0,0-6,7.09c-3.71,9.38,1.5,13.15,1.9,20.12.2,3.52-2.14,7.51-3.54,10.71s-3.89,5.86-4.54,9.25c-1.11,5.81,3.52,11.2,4,17.09.38,4.9-1.35,9.07,1.36,13.55a8.62,8.62,0,0,0,3.78,3.52c3.44,1.49,6.37-1.29,8.68-3.61C94.24,419.75,97.07,415.6,96.3,411.27Z" style="opacity: 0.1; transform-origin: 84.8785px 385.449px;" class="animable"></path></g><path d="M84.9,352.28a10.68,10.68,0,0,0-.34,4.93A27.56,27.56,0,0,0,85.82,362c1.06,3.14,2.32,6.24,2.64,9.49a12.61,12.61,0,0,1-.4,4.78,12.85,12.85,0,0,1-.88,2.24l-1.07,2.23a68.23,68.23,0,0,0-4.1,9.16,20.24,20.24,0,0,0-.42,10.19c.13.85.38,1.66.58,2.49l.66,2.39c.42,1.58.82,3.18,1.16,4.78a43.78,43.78,0,0,1,1.14,9.6A18.13,18.13,0,0,1,83,428.31l2.37,1.3a20.73,20.73,0,0,0,2.17-10.24A46.57,46.57,0,0,0,86,409.32c-.41-1.63-.87-3.24-1.36-4.84s-1-3.15-1.37-4.71a18.72,18.72,0,0,1,.07-9.46,68.44,68.44,0,0,1,3.71-9.1l1-2.28a15.3,15.3,0,0,0,.85-2.41,13.6,13.6,0,0,0,.25-5.08c-.45-3.37-1.84-6.44-3-9.52a27.16,27.16,0,0,1-1.41-4.74A10.68,10.68,0,0,1,84.9,352.28Z" style="fill: rgb(250, 250, 250); transform-origin: 85.2057px 390.945px;" id="elfus4o6i5kwq" class="animable"></path></g><path d="M163.19,408.2a.4.4,0,0,0-.28.08,8.07,8.07,0,0,1-2.86.83,22.91,22.91,0,0,1-3.21.08l-.59,0,.19-.32c.73-1.34,1.33-2.74,2.08-4.06s1.91-3.13,3.56-3.64c.25-.08.24-.75,0-.71a5.48,5.48,0,0,0-2.26.74,8.73,8.73,0,0,0-1.8,1.58,23.58,23.58,0,0,0-2.72,4.29,21.7,21.7,0,0,1-2.7,3.83,8.11,8.11,0,0,1-1.52,1.41,12.39,12.39,0,0,0-.94.83c-.16.13-.92.57-1,.74l.24-1.14a21.25,21.25,0,0,1,.68-2.86,8.31,8.31,0,0,1,1.93-2.8c.16-.15.13-.77-.16-.56a11.44,11.44,0,0,0-3.22,4c-.8,1.48-1.22,3.13-2,4.64a17.35,17.35,0,0,1-1.27,1.93,10.83,10.83,0,0,1-2.38,2.75c-1.2.9-2.68,1-4,1.64.13-.31.26-.63.41-.94.47-1.05,1-2.12,1.53-3.12a12.84,12.84,0,0,1,.89-1.33,15.71,15.71,0,0,1,1.28-1.55,7.66,7.66,0,0,1,2.89-1.78c.27-.1.23-.84-.1-.79a10.1,10.1,0,0,0-3.56,1.29,7.24,7.24,0,0,0-1.45,1.07,12.48,12.48,0,0,0-1.29,1.52c-.15.19-.27.41-.41.61a.66.66,0,0,0,0-.14,6.06,6.06,0,0,1,1-3.59c.13-.17,0-.78-.25-.54a7.2,7.2,0,0,0-1.73,2.57,14.18,14.18,0,0,0-.67,3.37,8.37,8.37,0,0,1-.66,2.81,6.16,6.16,0,0,1-1.74,1.59,8.82,8.82,0,0,1-4.23,1.54,19.6,19.6,0,0,1-4.9,0,10.87,10.87,0,0,0,2.21-.82c1.46-.75,2.44-2,3.78-2.92a8.91,8.91,0,0,1,2.23-1.1,4,4,0,0,0,1.92-.92s0-.09,0-.11c-.94-.74-2.79-.26-3.82.11a39.65,39.65,0,0,0-4.85,2.7,11.25,11.25,0,0,1-3.85,1.09,10.13,10.13,0,0,1-3.07-.17,13.7,13.7,0,0,1,1.93-2,14.76,14.76,0,0,1,2.81-2.13,12.71,12.71,0,0,1,3.47-1.18,20.47,20.47,0,0,0,4.64-1,9.37,9.37,0,0,0,3.77-3.35c.94-1.32,1.28-2.86,2.7-3.81,1.83-1.22,4.17-.65,6.18-1.28a4.22,4.22,0,0,0,3.12-3.22c0-.13-.09-.31-.2-.14a3.66,3.66,0,0,1-1,.92,3.32,3.32,0,0,1-1.26.63,12.79,12.79,0,0,1-2.83.32,12.92,12.92,0,0,0-4.06.23,8.74,8.74,0,0,1,1.76-3.16c.21-.23.06-1-.29-.69a12.09,12.09,0,0,0-1.76,1.67,10.13,10.13,0,0,0-1.12,2,39.32,39.32,0,0,1-2.08,4.34,8.19,8.19,0,0,1-3.28,3.06,7.47,7.47,0,0,1-2.61.74,18.43,18.43,0,0,0,3.9-4.68,11.7,11.7,0,0,0,1.08-2.55,24.43,24.43,0,0,1,.65-2.41,8.08,8.08,0,0,1,2.92-3.52,9.54,9.54,0,0,1,6.29-1.3c1.9.17,3.76.61,5.64.92a16.07,16.07,0,0,0,4.64.27,5.31,5.31,0,0,0,2-.61,4.3,4.3,0,0,0,1.35-1.74c-3.18,1.34-6.41.59-9.62-.16-1.2-.28-2.41-.54-3.63-.71l.19-.06c4.41-1.12,9.13-1.83,12.75-4.83.18-.16.12-.84-.18-.68a23,23,0,0,1-6.6,2.1l0-.08a7.54,7.54,0,0,0,.31-3c0-.4-.17-.86-.55-1a7.92,7.92,0,0,1-.74,3,3.1,3.1,0,0,1-2.54,1.73,21.16,21.16,0,0,0-4.22.9c-.34.09-.67.2-1,.31.39-.21.79-.4,1.15-.62a11.26,11.26,0,0,0,2.27-1.73,14,14,0,0,0,1.68-2.52,6.81,6.81,0,0,1,1-1.36,3.46,3.46,0,0,1,2.37-.73c1.38-.09,2.84.07,4.12-.57.27-.14.22-.85-.14-.73-1.53.48-3.18-.1-4.71-.29a6.1,6.1,0,0,0-2.83.23v0a17.92,17.92,0,0,1-.26-2.54,3.1,3.1,0,0,1,.64-2c.09-.08.11-.4-.08-.32s-.49.11-.71.36a2.35,2.35,0,0,0-.4.73,6.68,6.68,0,0,0-.38,1.93c-.07,1.4.34,3.09-.38,4.38a8.23,8.23,0,0,1-1.91,2.08,18.26,18.26,0,0,1-2.23,1.47l-.07.05a1.9,1.9,0,0,1,0-.25c.11-2.18-.26-4.36.44-6.47,0-.1,0-.4-.17-.29-1.33.81-1.7,2.51-1.79,4a14.3,14.3,0,0,1-1,5.15,11.87,11.87,0,0,1-3.76,4.06c0-.29-.14-.55-.16-.84a10.88,10.88,0,0,1,0-1.28,16,16,0,0,1,.23-2.49,15.61,15.61,0,0,1,1.61-4.72c-.54-.07-1,.41-1.27.87a13.81,13.81,0,0,0-2.13,5.81c-.26,2.12-.21,4.26-.48,6.38a11.81,11.81,0,0,1-.84,3.2c-2.45,5.66-8.66,8-13,11.89a12.27,12.27,0,0,0-3.38,4.9.13.13,0,0,0,0-.06,23.52,23.52,0,0,1-.8-3c.09-.42.15-.84.25-1.25a7.07,7.07,0,0,1,1-2.42c1.29-1.84,3.66-2.41,5.59-3.27.25-.11.27-.74,0-.79a7.88,7.88,0,0,0-6.66,1.75,13.57,13.57,0,0,1,.84-2.05,4.46,4.46,0,0,1,1.6-1.31,11.94,11.94,0,0,1,4.15-1.64c.94-.18,1.86-.38,2.8-.58a10.51,10.51,0,0,0,2.1-.48,8.17,8.17,0,0,0,1.75-1,5.87,5.87,0,0,0,2-2.34.34.34,0,0,0,0-.35.27.27,0,0,0-.31-.07.94.94,0,0,0-.28.21,7.1,7.1,0,0,1-3.46,1.7c-1.57.33-3.16.47-4.72.86a7.47,7.47,0,0,0,1.72-2.48,5,5,0,0,1,.49-1.17,4.25,4.25,0,0,1,.81-.83c1.2-1,2.77-1.39,3.83-2.51a12.14,12.14,0,0,0,2.79-5.11,13.61,13.61,0,0,0,.44-3.72c.28-.56.55-1.12.84-1.67a14.4,14.4,0,0,1,1.42-2.19c.25-.21.49-.44.75-.67a7.45,7.45,0,0,1,1.4-1c1.87-1,4-1.32,5.91-2.34a7.62,7.62,0,0,0,3.36-3.33c.09-.2.12-.51-.09-.57s-.28.1-.38.22a5.64,5.64,0,0,1-3,2c-1.36.3-2.76.61-4.09,1l-.45.15a9,9,0,0,0,1.14-6.71c-.07-.27-.37-.41-.48-.08a7.53,7.53,0,0,0-.2,1.9,5,5,0,0,1-.83,2.66,52.46,52.46,0,0,1-3.56,4,21.44,21.44,0,0,0-2.09,2.73c-.28-2-.67-4-.77-6.06,0-.15-.16-.27-.26-.1-.88,1.61-.75,3.89-.64,5.65a18.93,18.93,0,0,1-.35,6.37,11.94,11.94,0,0,1-2.83,5.14,18,18,0,0,1-3.37,2.1,4.23,4.23,0,0,1,.25-3.1,4.58,4.58,0,0,1,.62-1.18,7.88,7.88,0,0,0,.87-1.21,6.66,6.66,0,0,0,.53-4.56s0,0,.05-.05a10.79,10.79,0,0,0,2-4.21,8.93,8.93,0,0,0,.19-2.36,7.13,7.13,0,0,1,0-2.35c.4-1.52,2-1.76,3.29-2.3a6.28,6.28,0,0,0,2-1.19,3.91,3.91,0,0,0,1.1-2c0-.18-.17-.41-.28-.17a1.84,1.84,0,0,1-1.25.86c-.76.26-1.54.46-2.31.67s-1.46.4-2.17.65a5.21,5.21,0,0,0-1.77.94,3,3,0,0,1-.25.25c-.76-1.23-1.8-2.68-1.81-4.19,0-.31-.36-.51-.43-.11-.41,2.42,1.24,4.46,1.72,6.74a8.63,8.63,0,0,1-1.12,6.38,8.38,8.38,0,0,0-1.44-1.73,8.34,8.34,0,0,1-2.27-2.87,1.76,1.76,0,0,0,.11,1.25,4.75,4.75,0,0,0,.6,1.19,8.3,8.3,0,0,1,.86,1.16,10.07,10.07,0,0,1,1.47,3.63,5.46,5.46,0,0,1-.94,3.9c-.18.26-.76,1.36-1.1,1.37s-.32-1.4-.35-1.69c0-.09,0-.2-.12-.24s-.25.15-.28.31a16.62,16.62,0,0,0-.23,5.62c.18.93.51,1.82.63,2.75a2.71,2.71,0,0,1-.75,1.95,15.4,15.4,0,0,1-3.36,2.81,9.25,9.25,0,0,0-4,6.21l0,.23a10.65,10.65,0,0,1-.78-2.67,5.47,5.47,0,0,1,.53-2.7c.85-1.71,2.53-2.83,3.85-4.2a12.42,12.42,0,0,0,1.77-2.31,1.41,1.41,0,0,0,.22-.52.53.53,0,0,0-.18-.51,5,5,0,0,1-1.63,1.75,20,20,0,0,1-2.17.93,5.37,5.37,0,0,0-1.24.88l-.44.41a11.08,11.08,0,0,1,.82-2c.75-1.4,1.69-2.69,2.43-4.1a19.61,19.61,0,0,0,1.63-4.59,16.71,16.71,0,0,0,0-8.34q0-.44.09-.84a10.24,10.24,0,0,1,1.32-3.4,12.56,12.56,0,0,0,1.53-3.12,11.2,11.2,0,0,0,.37-3.5c0-.36-.39-.25-.4.06a5.48,5.48,0,0,1-1.24,3.16,29.89,29.89,0,0,0-2.27,3,10.82,10.82,0,0,0-.75,1.48,16.74,16.74,0,0,0-3.69-4.39c-.26-.22-.38.32-.24.49a11.45,11.45,0,0,1,2.21,3.43,23.14,23.14,0,0,1,1,3.81l0,.2a3.67,3.67,0,0,0,.11.94,20.6,20.6,0,0,1-1.07,8.18c-1,2.91-3.14,5.2-4.14,8.07a12.5,12.5,0,0,0-.37,1.33c-.06-.28-.14-.55-.2-.83s0-.46,0-.7a15.89,15.89,0,0,1,.15-2.58,17.81,17.81,0,0,1,1.56-4.52,34.36,34.36,0,0,0,1.78-4.51c.17-.63.14-1.24.25-1.86a10.38,10.38,0,0,0,.18-2.08,9.34,9.34,0,0,0-.1-1.29c0-.21-.13-.72-.41-.29a.83.83,0,0,0-.09.39,13.41,13.41,0,0,1-1.38,4.66c-.77,1.58-1.73,3.05-2.52,4.63.09-1.45.22-2.89.33-4.37.21-2.89-.14-6.27-2.46-8.27-.15-.13-.24.24-.2.34.94,1.85.22,4.58.06,6.59,0,.23,0,.47-.07.71A10.9,10.9,0,0,0,107,389c-.58-.73-1.67-1.75-2.67-1.71-.07,0-.11.13-.08.18.38.5.92.86,1.34,1.33a8.83,8.83,0,0,1,1,1.39,8.05,8.05,0,0,1,1,2.8,17.62,17.62,0,0,1,.09,3,41.79,41.79,0,0,0,.43,6.71c.18,1,.39,2,.64,3s.57,2.06.88,3.08a34.06,34.06,0,0,1-2.34-3.23c-.31-.5-.57-1-.85-1.54a15.94,15.94,0,0,1-2-5.19,10.32,10.32,0,0,0-.89-3.5c-.13-.24-.33.1-.28.26a13.57,13.57,0,0,1,.24,4.58,10.38,10.38,0,0,0,.79,3.77c.1.3.24.58.36.87l0,0c-1-.76-2.77-.84-2.93-2.4,0-.22-.24,0-.24.09a2.1,2.1,0,0,0,.81,1.83c.55.44,1.22.7,1.79,1.1a8.32,8.32,0,0,1,1,.95l.85.9a34.28,34.28,0,0,0,2,2.84,19.52,19.52,0,0,1,3.45,5.8c.36,1.09.77,2.16,1.11,3.25a9.61,9.61,0,0,0,1.08,2.94,5,5,0,0,0,1.19,2,1.38,1.38,0,0,0,1.76.12,2.37,2.37,0,0,0,1.49,2.42.57.57,0,0,0,.51,0,1.44,1.44,0,0,0,.58-1c1.28.24,3.26.73,3.5.81a37.53,37.53,0,0,0,4.15,1,94.55,94.55,0,0,0,10.68,1.71l.85.07a5.7,5.7,0,0,1,.55.16c1.28.45,2.5,1.07,3.78,1.52,2.05.71,4.78,1.59,6.79.32.11-.07.19-.45,0-.42a9.7,9.7,0,0,1-3.72-.08,15.78,15.78,0,0,1-3.31-1.39,20.22,20.22,0,0,0,3.79-.45,10.67,10.67,0,0,0,6.35-4c.13-.16,0-.63-.18-.4-2,2-5.49,2.41-8.2,2.6a39.92,39.92,0,0,1-7.57-.31,4.58,4.58,0,0,0-1.45-.18l-1.75-.26.7-.1a68.17,68.17,0,0,0,7.62-1.7c2-.56,4.67-1.63,6.79-.92.39.13.39-.63.12-.78a8.28,8.28,0,0,0-2.08-.77,10.09,10.09,0,0,0-1.08-.17,5.45,5.45,0,0,1-.7,0,5.39,5.39,0,0,1,1.24-1.66,10,10,0,0,1,1.59-1.39,10.53,10.53,0,0,1,3.78-1.71,24.78,24.78,0,0,0,4.18-1c1.12-.47,2-1.37,3.08-1.88.27-.12.22-.84-.12-.71-1.13.41-2.14,1.1-3.3,1.41a21.39,21.39,0,0,1-4.25.29c.68-.56,1.33-1.16,2-1.76a8,8,0,0,1,1.76-1.42,8.63,8.63,0,0,1,2.16-.8c2.11-.53,4.45-.61,6.11-2.18l.22-.22a.75.75,0,0,0,.21-.34A.27.27,0,0,0,163.19,408.2Z" style="fill: rgb(69, 90, 100); transform-origin: 132.446px 403.425px;" id="el055m2c4gey17" class="animable"></path><g id="freepik--rock--inject-36" class="animable" style="transform-origin: 107.645px 437.295px;"><polygon points="107.44 411.11 123.72 425.16 128.66 434.44 116.85 434.65 101.24 439.6 98.57 429.79 106.46 421.4 107.44 411.11" style="fill: rgb(184, 115, 51); transform-origin: 113.615px 425.355px;" id="el1jrwto9hp8u" class="animable"></polygon><g id="elb95uwp1u27b"><polygon points="107.44 411.11 123.72 425.16 128.66 434.44 116.85 434.65 101.24 439.6 98.57 429.79 106.46 421.4 107.44 411.11" style="opacity: 0.3; transform-origin: 113.615px 425.355px;" class="animable"></polygon></g><polygon points="107.44 411.11 96.53 410.13 92.81 420.82 98.57 429.79 106.46 421.4 107.44 411.11" style="fill: rgb(184, 115, 51); transform-origin: 100.125px 419.96px;" id="elhw3bikyp3vh" class="animable"></polygon><g id="elapt7tuk28bf"><polygon points="107.44 411.11 96.53 410.13 92.81 420.82 98.57 429.79 106.46 421.4 107.44 411.11" style="opacity: 0.35; transform-origin: 100.125px 419.96px;" class="animable"></polygon></g><polygon points="79.24 419.89 76.65 428.3 84.81 426.79 93.6 432.88 97.14 438.7 99.09 449.49 100.51 464.46 106.77 452.55 101.24 439.6 95.28 430.84 85.51 425.93 79.24 419.89" style="fill: rgb(184, 115, 51); transform-origin: 91.71px 442.175px;" id="el2emjumt1xy8" class="animable"></polygon><polygon points="84.96 454 73.11 441.06 80.08 431.7 84.96 454" style="fill: rgb(184, 115, 51); transform-origin: 79.035px 442.85px;" id="el8ig9mivl8ei" class="animable"></polygon><g id="eljsz6pe1w0n"><g style="opacity: 0.5; transform-origin: 89.94px 442.175px;" class="animable"><polygon points="79.24 419.89 76.65 428.3 84.81 426.79 93.6 432.88 97.14 438.7 99.09 449.49 100.51 464.46 106.77 452.55 101.24 439.6 95.28 430.84 85.51 425.93 79.24 419.89" id="ela2ilp06muyv" class="animable" style="transform-origin: 91.71px 442.175px;"></polygon><polygon points="84.96 454 73.11 441.06 80.08 431.7 84.96 454" id="elcl18ew8ejse" class="animable" style="transform-origin: 79.035px 442.85px;"></polygon></g></g><polygon points="116.94 419.31 122.42 427.64 123.37 432.02 116.91 431.5 101.24 439.6 116.85 434.65 128.66 434.44 123.72 425.16 116.94 419.31" style="fill: rgb(184, 115, 51); transform-origin: 114.95px 429.455px;" id="elwqeemq85ti" class="animable"></polygon><polygon points="96.53 410.13 95.38 420.62 100.62 427.61 98.57 429.79 92.81 420.82 96.53 410.13" style="fill: rgb(184, 115, 51); transform-origin: 96.715px 419.96px;" id="elq7t2ssj1abl" class="animable"></polygon><polygon points="106.77 452.55 115.2 452.11 132.67 449.09 144.31 442.64 141.24 436.44 135.07 434.57 139.87 437.51 140.12 441.61 133.75 445.28 108.02 450.3 101.24 439.6 106.77 452.55" style="fill: rgb(184, 115, 51); transform-origin: 122.775px 443.56px;" id="el3dajcn59tm3" class="animable"></polygon><g id="elvt70tr1d85a"><g style="opacity: 0.25; transform-origin: 118.56px 431.34px;" class="animable"><polygon points="116.94 419.31 122.42 427.64 123.37 432.02 116.91 431.5 101.24 439.6 116.85 434.65 128.66 434.44 123.72 425.16 116.94 419.31" id="elz4itzyg2bys" class="animable" style="transform-origin: 114.95px 429.455px;"></polygon><polygon points="96.53 410.13 95.38 420.62 100.62 427.61 98.57 429.79 92.81 420.82 96.53 410.13" id="elycuuxprms67" class="animable" style="transform-origin: 96.715px 419.96px;"></polygon><polygon points="106.77 452.55 115.2 452.11 132.67 449.09 144.31 442.64 141.24 436.44 135.07 434.57 139.87 437.51 140.12 441.61 133.75 445.28 108.02 450.3 101.24 439.6 106.77 452.55" id="el7q7mpsxk3s4" class="animable" style="transform-origin: 122.775px 443.56px;"></polygon></g></g><polygon points="123.72 425.16 135.07 434.57 139.87 437.51 140.12 441.61 133.75 445.28 108.02 450.3 106.1 447.27 115.69 440.59 121.96 441.95 128.66 434.44 123.72 425.16" style="fill: rgb(184, 115, 51); transform-origin: 123.11px 437.73px;" id="el2331igocqn7" class="animable"></polygon><g id="elqi4ndpv3tn"><polygon points="123.72 425.16 135.07 434.57 139.87 437.51 140.12 441.61 133.75 445.28 108.02 450.3 106.1 447.27 115.69 440.59 121.96 441.95 128.66 434.44 123.72 425.16" style="opacity: 0.35; transform-origin: 123.11px 437.73px;" class="animable"></polygon></g><polygon points="96.53 410.13 79.24 419.89 85.51 425.93 95.28 430.84 101.24 439.6 98.57 429.79 92.81 420.82 96.53 410.13" style="fill: rgb(184, 115, 51); transform-origin: 90.24px 424.865px;" id="eld8cmohvu1l6" class="animable"></polygon><polygon points="84.81 426.79 93.6 432.88 97.14 438.7 99.09 449.49 94.94 458.7 84.96 454 80.08 431.7 84.81 426.79" style="fill: rgb(184, 115, 51); transform-origin: 89.585px 442.745px;" id="elb1uwp2dwriq" class="animable"></polygon><polygon points="128.66 434.44 121.96 441.95 115.69 440.59 116.85 434.65 128.66 434.44" style="fill: rgb(184, 115, 51); transform-origin: 122.175px 438.195px;" id="elabu0sgj4rrh" class="animable"></polygon><polygon points="134.34 455.39 128.9 455.98 126.7 452.72 115.2 452.11 132.67 449.09 134.34 455.39" style="fill: rgb(184, 115, 51); transform-origin: 124.77px 452.535px;" id="elw6lxy75idg" class="animable"></polygon><g id="elxys8umv5wea"><g style="opacity: 0.45; transform-origin: 106.79px 434.415px;" class="animable"><polygon points="96.53 410.13 79.24 419.89 85.51 425.93 95.28 430.84 101.24 439.6 98.57 429.79 92.81 420.82 96.53 410.13" id="elx2j00z53l4" class="animable" style="transform-origin: 90.24px 424.865px;"></polygon><polygon points="84.81 426.79 93.6 432.88 97.14 438.7 99.09 449.49 94.94 458.7 84.96 454 80.08 431.7 84.81 426.79" id="elqc63hqdfzgj" class="animable" style="transform-origin: 89.585px 442.745px;"></polygon><polygon points="128.66 434.44 121.96 441.95 115.69 440.59 116.85 434.65 128.66 434.44" id="elhjv4ul85qgr" class="animable" style="transform-origin: 122.175px 438.195px;"></polygon><polygon points="134.34 455.39 128.9 455.98 126.7 452.72 115.2 452.11 132.67 449.09 134.34 455.39" id="el7hkznafuqm6" class="animable" style="transform-origin: 124.77px 452.535px;"></polygon></g></g><polygon points="110.29 452.37 115.2 452.11 119.08 458.14 113.58 463.64 110.29 452.37" style="fill: rgb(184, 115, 51); transform-origin: 114.685px 457.875px;" id="elth8f5kf5els" class="animable"></polygon><g id="elux7mnuw03wl"><polygon points="110.29 452.37 115.2 452.11 119.08 458.14 113.58 463.64 110.29 452.37" style="opacity: 0.35; transform-origin: 114.685px 457.875px;" class="animable"></polygon></g><polygon points="76.65 428.3 69.33 435.81 73.11 441.06 80.08 431.7 84.81 426.79 76.65 428.3" style="fill: rgb(184, 115, 51); transform-origin: 77.07px 433.925px;" id="elj92c6ai9p4" class="animable"></polygon><polygon points="100.51 464.46 94.94 458.7 99.09 449.49 100.51 464.46" style="fill: rgb(184, 115, 51); transform-origin: 97.725px 456.975px;" id="ellr1ok4q5lb" class="animable"></polygon><polygon points="101.24 439.6 106.1 447.27 115.69 440.59 116.85 434.65 101.24 439.6" style="fill: rgb(184, 115, 51); transform-origin: 109.045px 440.96px;" id="el00ujnkelxn51n" class="animable"></polygon><polygon points="144.31 442.64 145.96 450.21 134.34 455.39 132.67 449.09 144.31 442.64" style="fill: rgb(184, 115, 51); transform-origin: 139.315px 449.015px;" id="ell9uanvdldzd" class="animable"></polygon><polygon points="100.51 464.46 113.58 463.64 110.29 452.37 106.77 452.55 100.51 464.46" style="fill: rgb(184, 115, 51); transform-origin: 107.045px 458.415px;" id="elel7ppikjlwa" class="animable"></polygon><polygon points="128.9 455.98 119.08 458.14 115.2 452.11 126.7 452.72 128.9 455.98" style="fill: rgb(184, 115, 51); transform-origin: 122.05px 455.125px;" id="el6xg36arlass" class="animable"></polygon><g id="elp840zq0c7z"><g style="opacity: 0.4; transform-origin: 107.645px 445.625px;" class="animable"><polygon points="76.65 428.3 69.33 435.81 73.11 441.06 80.08 431.7 84.81 426.79 76.65 428.3" id="el9swe76qev4" class="animable" style="transform-origin: 77.07px 433.925px;"></polygon><polygon points="100.51 464.46 94.94 458.7 99.09 449.49 100.51 464.46" id="elx267j5prwgh" class="animable" style="transform-origin: 97.725px 456.975px;"></polygon><polygon points="101.24 439.6 106.1 447.27 115.69 440.59 116.85 434.65 101.24 439.6" id="elakvlbhafgkl" class="animable" style="transform-origin: 109.045px 440.96px;"></polygon><polygon points="144.31 442.64 145.96 450.21 134.34 455.39 132.67 449.09 144.31 442.64" id="elk022kbowcj" class="animable" style="transform-origin: 139.315px 449.015px;"></polygon><polygon points="100.51 464.46 113.58 463.64 110.29 452.37 106.77 452.55 100.51 464.46" id="el6lnokpy1owk" class="animable" style="transform-origin: 107.045px 458.415px;"></polygon><polygon points="128.9 455.98 119.08 458.14 115.2 452.11 126.7 452.72 128.9 455.98" id="elvn08d991px" class="animable" style="transform-origin: 122.05px 455.125px;"></polygon></g></g></g><g id="freepik--rock--inject-36" class="animable" style="transform-origin: 162.915px 448.11px;"><polygon points="162.79 433.07 172.15 441.14 174.99 446.47 168.21 446.59 159.23 449.43 157.7 443.8 162.23 438.98 162.79 433.07" style="fill: rgb(184, 115, 51); transform-origin: 166.345px 441.25px;" id="elolvvedqqkj" class="animable"></polygon><g id="elkni7kqp9dga"><polygon points="162.79 433.07 172.15 441.14 174.99 446.47 168.21 446.59 159.23 449.43 157.7 443.8 162.23 438.98 162.79 433.07" style="opacity: 0.3; transform-origin: 166.345px 441.25px;" class="animable"></polygon></g><polygon points="162.79 433.07 156.53 432.5 154.39 438.65 157.7 443.8 162.23 438.98 162.79 433.07" style="fill: rgb(184, 115, 51); transform-origin: 158.59px 438.15px;" id="elawtmhm2837" class="animable"></polygon><g id="eltkxu29rbi2p"><polygon points="162.79 433.07 156.53 432.5 154.39 438.65 157.7 443.8 162.23 438.98 162.79 433.07" style="opacity: 0.35; transform-origin: 158.59px 438.15px;" class="animable"></polygon></g><polygon points="146.59 438.11 145.1 442.94 149.79 442.08 154.84 445.57 156.88 448.92 158 455.12 158.81 463.72 162.41 456.88 159.23 449.43 155.81 444.4 150.19 441.58 146.59 438.11" style="fill: rgb(184, 115, 51); transform-origin: 153.755px 450.915px;" id="ela1rirquvudd" class="animable"></polygon><polygon points="149.88 457.71 143.07 450.27 147.07 444.9 149.88 457.71" style="fill: rgb(184, 115, 51); transform-origin: 146.475px 451.305px;" id="el8lgmhakp1uf" class="animable"></polygon><g id="el6j1tg1qxub"><g style="opacity: 0.5; transform-origin: 152.74px 450.915px;" class="animable"><polygon points="146.59 438.11 145.1 442.94 149.79 442.08 154.84 445.57 156.88 448.92 158 455.12 158.81 463.72 162.41 456.88 159.23 449.43 155.81 444.4 150.19 441.58 146.59 438.11" id="el18h91d9i04o" class="animable" style="transform-origin: 153.755px 450.915px;"></polygon><polygon points="149.88 457.71 143.07 450.27 147.07 444.9 149.88 457.71" id="el4cumber5zco" class="animable" style="transform-origin: 146.475px 451.305px;"></polygon></g></g><polygon points="168.25 437.77 171.4 442.56 171.95 445.08 168.24 444.78 159.23 449.43 168.21 446.59 174.99 446.47 172.15 441.14 168.25 437.77" style="fill: rgb(184, 115, 51); transform-origin: 167.11px 443.6px;" id="elui8xi2hrl2o" class="animable"></polygon><polygon points="156.53 432.5 155.87 438.53 158.88 442.55 157.7 443.8 154.39 438.65 156.53 432.5" style="fill: rgb(184, 115, 51); transform-origin: 156.635px 438.15px;" id="elbt4m509qv68" class="animable"></polygon><polygon points="162.41 456.88 167.26 456.62 177.29 454.89 183.98 451.18 182.22 447.62 178.67 446.54 181.43 448.23 181.57 450.59 177.92 452.7 163.13 455.58 159.23 449.43 162.41 456.88" style="fill: rgb(184, 115, 51); transform-origin: 171.605px 451.71px;" id="el8183i9owhl" class="animable"></polygon><g id="eleknf3uubiv"><g style="opacity: 0.25; transform-origin: 169.185px 444.69px;" class="animable"><polygon points="168.25 437.77 171.4 442.56 171.95 445.08 168.24 444.78 159.23 449.43 168.21 446.59 174.99 446.47 172.15 441.14 168.25 437.77" id="eljxzn2knmj4k" class="animable" style="transform-origin: 167.11px 443.6px;"></polygon><polygon points="156.53 432.5 155.87 438.53 158.88 442.55 157.7 443.8 154.39 438.65 156.53 432.5" id="elxoai1mhigl" class="animable" style="transform-origin: 156.635px 438.15px;"></polygon><polygon points="162.41 456.88 167.26 456.62 177.29 454.89 183.98 451.18 182.22 447.62 178.67 446.54 181.43 448.23 181.57 450.59 177.92 452.7 163.13 455.58 159.23 449.43 162.41 456.88" id="elywuxia25ei" class="animable" style="transform-origin: 171.605px 451.71px;"></polygon></g></g><polygon points="172.15 441.14 178.67 446.54 181.43 448.23 181.57 450.59 177.92 452.7 163.13 455.58 162.03 453.84 167.53 450 171.14 450.79 174.99 446.47 172.15 441.14" style="fill: rgb(184, 115, 51); transform-origin: 171.8px 448.36px;" id="el9xkoc90jj9v" class="animable"></polygon><g id="el2bljj8llwbo"><polygon points="172.15 441.14 178.67 446.54 181.43 448.23 181.57 450.59 177.92 452.7 163.13 455.58 162.03 453.84 167.53 450 171.14 450.79 174.99 446.47 172.15 441.14" style="opacity: 0.35; transform-origin: 171.8px 448.36px;" class="animable"></polygon></g><polygon points="156.53 432.5 146.59 438.11 150.19 441.58 155.81 444.4 159.23 449.43 157.7 443.8 154.39 438.65 156.53 432.5" style="fill: rgb(184, 115, 51); transform-origin: 152.91px 440.965px;" id="elxkv2rvdgw3o" class="animable"></polygon><polygon points="149.79 442.08 154.84 445.57 156.88 448.92 158 455.12 155.61 460.41 149.88 457.71 147.07 444.9 149.79 442.08" style="fill: rgb(184, 115, 51); transform-origin: 152.535px 451.245px;" id="elud54pk64o9k" class="animable"></polygon><polygon points="174.99 446.47 171.14 450.79 167.53 450 168.21 446.59 174.99 446.47" style="fill: rgb(184, 115, 51); transform-origin: 171.26px 448.63px;" id="elx1bd0sb9ms" class="animable"></polygon><polygon points="178.25 458.51 175.13 458.84 173.86 456.97 167.26 456.62 177.29 454.89 178.25 458.51" style="fill: rgb(184, 115, 51); transform-origin: 172.755px 456.865px;" id="elvq4lnib09o" class="animable"></polygon><g id="el285acu56kyc"><g style="opacity: 0.45; transform-origin: 162.42px 446.455px;" class="animable"><polygon points="156.53 432.5 146.59 438.11 150.19 441.58 155.81 444.4 159.23 449.43 157.7 443.8 154.39 438.65 156.53 432.5" id="eldev5r8p8zl7" class="animable" style="transform-origin: 152.91px 440.965px;"></polygon><polygon points="149.79 442.08 154.84 445.57 156.88 448.92 158 455.12 155.61 460.41 149.88 457.71 147.07 444.9 149.79 442.08" id="elrmf0305re2" class="animable" style="transform-origin: 152.535px 451.245px;"></polygon><polygon points="174.99 446.47 171.14 450.79 167.53 450 168.21 446.59 174.99 446.47" id="el4hvgpwqwwcy" class="animable" style="transform-origin: 171.26px 448.63px;"></polygon><polygon points="178.25 458.51 175.13 458.84 173.86 456.97 167.26 456.62 177.29 454.89 178.25 458.51" id="ely0m0okv3xcs" class="animable" style="transform-origin: 172.755px 456.865px;"></polygon></g></g><polygon points="164.44 456.77 167.26 456.62 169.48 460.09 166.32 463.25 164.44 456.77" style="fill: rgb(184, 115, 51); transform-origin: 166.96px 459.935px;" id="el1ahxy5hbhax" class="animable"></polygon><g id="elqmkq14xeenh"><polygon points="164.44 456.77 167.26 456.62 169.48 460.09 166.32 463.25 164.44 456.77" style="opacity: 0.35; transform-origin: 166.96px 459.935px;" class="animable"></polygon></g><polygon points="145.1 442.94 140.9 447.26 143.07 450.27 147.07 444.9 149.79 442.08 145.1 442.94" style="fill: rgb(184, 115, 51); transform-origin: 145.345px 446.175px;" id="elvfc4e2a71q" class="animable"></polygon><polygon points="158.81 463.72 155.61 460.41 158 455.12 158.81 463.72" style="fill: rgb(184, 115, 51); transform-origin: 157.21px 459.42px;" id="elb5tok6sljvt" class="animable"></polygon><polygon points="159.23 449.43 162.03 453.84 167.53 450 168.21 446.59 159.23 449.43" style="fill: rgb(184, 115, 51); transform-origin: 163.72px 450.215px;" id="elxk2uzk10uqi" class="animable"></polygon><polygon points="183.98 451.18 184.93 455.53 178.25 458.51 177.29 454.89 183.98 451.18" style="fill: rgb(184, 115, 51); transform-origin: 181.11px 454.845px;" id="elo6c8t45mrlq" class="animable"></polygon><polygon points="158.81 463.72 166.32 463.25 164.44 456.77 162.41 456.88 158.81 463.72" style="fill: rgb(184, 115, 51); transform-origin: 162.565px 460.245px;" id="elsfgqjfj1fac" class="animable"></polygon><polygon points="175.13 458.84 169.48 460.09 167.26 456.62 173.86 456.97 175.13 458.84" style="fill: rgb(184, 115, 51); transform-origin: 171.195px 458.355px;" id="elnsu1eyy4ibm" class="animable"></polygon><g id="eligackzs9qzj"><g style="opacity: 0.4; transform-origin: 162.915px 452.9px;" class="animable"><polygon points="145.1 442.94 140.9 447.26 143.07 450.27 147.07 444.9 149.79 442.08 145.1 442.94" id="elfbgcqc1tioo" class="animable" style="transform-origin: 145.345px 446.175px;"></polygon><polygon points="158.81 463.72 155.61 460.41 158 455.12 158.81 463.72" id="eleinthv8s9fi" class="animable" style="transform-origin: 157.21px 459.42px;"></polygon><polygon points="159.23 449.43 162.03 453.84 167.53 450 168.21 446.59 159.23 449.43" id="eluygleop7v1" class="animable" style="transform-origin: 163.72px 450.215px;"></polygon><polygon points="183.98 451.18 184.93 455.53 178.25 458.51 177.29 454.89 183.98 451.18" id="elymkom3bn51m" class="animable" style="transform-origin: 181.11px 454.845px;"></polygon><polygon points="158.81 463.72 166.32 463.25 164.44 456.77 162.41 456.88 158.81 463.72" id="elhs82as7fk" class="animable" style="transform-origin: 162.565px 460.245px;"></polygon><polygon points="175.13 458.84 169.48 460.09 167.26 456.62 173.86 456.97 175.13 458.84" id="ellztn1o4c05q" class="animable" style="transform-origin: 171.195px 458.355px;"></polygon></g></g></g></g></g><g id="freepik--Fishes--inject-36" class="animable" style="transform-origin: 246.04px 225.434px;"><g id="freepik--fishes--inject-36" class="animable" style="transform-origin: 129.384px 297.149px;"><path d="M143.9,289.8c3.64,1.58,9.54-2.84,16.7,1.12,2.84,1.57-.91,4.45-4.45,4.45-3.88,0-8.9-3.47-11.1-3.83C141.65,291.25,143.9,289.8,143.9,289.8Z" style="fill: rgb(235, 235, 235); transform-origin: 152.385px 292.295px;" id="elw64nh4jiy9i" class="animable"></path><path d="M144.83,290.15c-1.35-.25-4.74-5-6.42-5.38s1.39,2.57.47,4.45-1.82,2.54-2.53,3.93c-.5,1-.37,1.2,1.54.08s4.61-2.66,8.05-1.45Z" style="fill: rgb(235, 235, 235); transform-origin: 141.02px 289.363px;" id="elf3phroropfq" class="animable"></path><path d="M116.41,306.23c3.07,1.33,8-2.39,14.06.94,2.39,1.32-.77,3.75-3.75,3.75-3.26,0-7.49-2.93-9.34-3.22C114.52,307.45,116.41,306.23,116.41,306.23Z" style="fill: rgb(235, 235, 235); transform-origin: 123.555px 308.331px;" id="el9af8lhcibcw" class="animable"></path><path d="M117.2,306.52c-1.14-.21-4-4.18-5.41-4.52s1.17,2.16.4,3.74-1.53,2.14-2.13,3.31c-.42.82-.31,1,1.29.06s3.89-2.24,6.78-1.21Z" style="fill: rgb(235, 235, 235); transform-origin: 113.99px 305.856px;" id="elx70fc4od1w" class="animable"></path><path d="M102,286.56c2.28,1,6-1.79,10.48.7,1.78,1-.57,2.79-2.79,2.79-2.44,0-5.59-2.18-7-2.4C100.62,287.46,102,286.56,102,286.56Z" style="fill: rgb(235, 235, 235); transform-origin: 107.328px 288.122px;" id="elvx3sc8fgazj" class="animable"></path><path d="M102.61,286.78c-.85-.16-3-3.13-4-3.38s.87,1.61.3,2.79-1.14,1.59-1.59,2.47c-.31.61-.23.75,1,0a5.64,5.64,0,0,1,5-.9Z" style="fill: rgb(235, 235, 235); transform-origin: 100.243px 286.274px;" id="elr6dkom839c8" class="animable"></path></g><g id="freepik--fishes--inject-36" class="animable" style="transform-origin: 364.897px 152.774px;"><path d="M351.36,145.94c-3.39,1.47-8.88-2.65-15.55,1-2.64,1.46.85,4.14,4.14,4.15,3.62,0,8.29-3.24,10.34-3.57C353.46,147.29,351.36,145.94,351.36,145.94Z" style="fill: rgb(235, 235, 235); transform-origin: 343.461px 148.237px;" id="elp6lbi5yxxeb" class="animable"></path><path d="M350.49,146.26c1.26-.23,4.42-4.63,6-5s-1.29,2.4-.44,4.15,1.7,2.36,2.36,3.66c.47.9.34,1.12-1.43.07s-4.3-2.48-7.49-1.35Z" style="fill: rgb(235, 235, 235); transform-origin: 354.067px 145.533px;" id="elvys9ncrkzfh" class="animable"></path><path d="M377,161.24c-2.86,1.23-7.48-2.23-13.09.87-2.22,1.23.71,3.49,3.49,3.49,3,0,7-2.72,8.7-3C378.72,162.37,377,161.24,377,161.24Z" style="fill: rgb(235, 235, 235); transform-origin: 370.341px 163.19px;" id="elhzb98dc2bn9" class="animable"></path><path d="M376.23,161.51c1.06-.2,3.72-3.9,5-4.22s-1.09,2-.37,3.49,1.43,2,2,3.08c.39.76.28.94-1.21.06s-3.62-2.08-6.31-1.13Z" style="fill: rgb(235, 235, 235); transform-origin: 379.196px 160.884px;" id="el11t0dtc07rn" class="animable"></path><path d="M390.35,142.92c-2.13.92-5.58-1.66-9.76.65-1.66.91.53,2.6,2.6,2.6,2.27,0,5.2-2,6.49-2.24C391.67,143.76,390.35,142.92,390.35,142.92Z" style="fill: rgb(235, 235, 235); transform-origin: 385.392px 144.375px;" id="elfs6zr337w1a" class="animable"></path><path d="M389.81,143.12c.79-.15,2.77-2.91,3.75-3.15s-.81,1.51-.28,2.61,1.07,1.48,1.49,2.29c.29.57.21.71-.91,0a5.22,5.22,0,0,0-4.7-.85Z" style="fill: rgb(235, 235, 235); transform-origin: 392.037px 142.65px;" id="el0s80qry3g8mp" class="animable"></path></g></g><g id="freepik--Character--inject-36" class="animable" style="transform-origin: 241.689px 254.076px;"><g id="freepik--character--inject-36" class="animable" style="transform-origin: 241.689px 254.076px;"><g id="freepik--Bottom--inject-36" class="animable" style="transform-origin: 172.89px 222.787px;"><path d="M204.21,199.91c-2.69-6.18-7.54-11.19-12.7-15.53s-10.78-8.12-15.86-12.56a2.83,2.83,0,0,1-1.1-1.57c-.26-1.65,1.76-2.49,3.08-2.28a14,14,0,0,0,2.62.46,12.08,12.08,0,0,0,2.47-.62,16.69,16.69,0,0,1,4.94-.09c1.74.09,3.35-.35,5.07.11,4.29,1.13,6.82,5.86,11,7.24,3.11,1,6.78.08,9.57,1.78s3.57,5.3,3.62,8.53c0,2.49-.35,4.27.1,6.73s2.58,8.75,7.2,18.12c-.66.68-15.78,7.21-16.06,5.75C207.49,212.24,205.62,203.17,204.21,199.91Z" style="fill: rgb(242, 143, 143); transform-origin: 199.374px 191.885px;" id="el5tvxgxfgjdk" class="animable"></path><path d="M184.12,178.58c2.19-.87,7.25.9,13.26,5.82s10.57,8.69,15,7.49,4.43-2.84,4.43-2.84a47.69,47.69,0,0,0,.51-6.29c0-3-.67-6.2-5-7.34-4.76-1.25-6.08-.17-9.36-2.36s-8.61-8.47-14.49-15.58-8.35-7.52-17.78-7.66-31.32,2.2-31.43,6.37C139.24,158.21,166.44,166.89,184.12,178.58Z" style="fill: rgb(184, 115, 51); transform-origin: 178.29px 170.964px;" id="el9pmhc72hrns" class="animable"></path><g id="elucwjobfa2r"><path d="M184.12,178.58c2.19-.87,7.25.9,13.26,5.82s10.57,8.69,15,7.49,4.43-2.84,4.43-2.84a47.69,47.69,0,0,0,.51-6.29c0-3-.67-6.2-5-7.34-4.76-1.25-6.08-.17-9.36-2.36s-8.61-8.47-14.49-15.58-8.35-7.52-17.78-7.66-31.32,2.2-31.43,6.37C139.24,158.21,166.44,166.89,184.12,178.58Z" style="opacity: 0.34; transform-origin: 178.29px 170.964px;" class="animable"></path></g><path d="M215.09,180.54a3.05,3.05,0,0,0,1.77-1.27,6,6,0,0,0-4.51-3.85c-4.3-1.13-5.8-.37-8.46-1.82-2.37-.81-4.4-2.2-7.14-4.75-3.78-3.5-12.59-14.3-17.49-16s7.26,12.23,7.26,12.23-23-15-24.65-13,17,14.14,17,14.14-27-11.72-31.89-11.36.84,3.12,12.62,7.8c12.26,4.87,30.3,12.26,36.46,15.83C202.37,182.19,210.39,182.27,215.09,180.54Z" style="fill: rgb(184, 115, 51); transform-origin: 181.045px 166.764px;" id="el2svo5qttjip" class="animable"></path><g id="el2ru3i26pyg6"><path d="M215.09,180.54a3.05,3.05,0,0,0,1.77-1.27,6,6,0,0,0-4.51-3.85c-4.3-1.13-5.8-.37-8.46-1.82-2.37-.81-4.4-2.2-7.14-4.75-3.78-3.5-12.59-14.3-17.49-16s7.26,12.23,7.26,12.23-23-15-24.65-13,17,14.14,17,14.14-27-11.72-31.89-11.36.84,3.12,12.62,7.8c12.26,4.87,30.3,12.26,36.46,15.83C202.37,182.19,210.39,182.27,215.09,180.54Z" style="opacity: 0.15; transform-origin: 181.045px 166.764px;" class="animable"></path></g><path d="M149.43,240.89c-5.23-4.26-13.1-6.8-19.67-8.28s-13.31-2.27-19.86-3.88a2.85,2.85,0,0,1-1.7-.89c-1-1.35.42-3,1.69-3.44a13.41,13.41,0,0,0,2.54-.8,11.16,11.16,0,0,0,1.9-1.68,16.84,16.84,0,0,1,4.36-2.35c1.59-.72,2.81-1.85,4.54-2.23,4.34-1,8.76,2.08,13.14,1.36,3.23-.52,6-3,9.32-2.81s5.61,3.07,7.13,5.92c1.17,2.19,1.65,3.95,3.18,5.93s6.31,6.59,14.72,12.79c-.28.91-10.14,11.76-10.14,11.76A102.94,102.94,0,0,0,149.43,240.89Z" style="fill: rgb(242, 143, 143); transform-origin: 139.291px 234.085px;" id="elrz7ktn3wgi" class="animable"></path><path d="M122.74,231.23c2.11-5.07,6.33-7.89,16.55-6.59s13,0,14.29-1.29c-.53-1.06.75-8.1-3.33-9.8-3.64-1.51-4.93.36-11,1.65-9.41,2-11-1.35-30.81-.71s-24.94,6-28.53,8.26-24.24,25.54-22.13,30.39S69,250.83,85.22,243,110.94,231,122.74,231.23Z" style="fill: rgb(184, 115, 51); transform-origin: 105.605px 233.853px;" id="el13occz1d8lfa" class="animable"></path><g id="ely67l2mq31la"><path d="M122.74,231.23c2.11-5.07,6.33-7.89,16.55-6.59s13,0,14.29-1.29c-.53-1.06.75-8.1-3.33-9.8-3.64-1.51-4.93.36-11,1.65-9.41,2-11-1.35-30.81-.71s-24.94,6-28.53,8.26-24.24,25.54-22.13,30.39S69,250.83,85.22,243,110.94,231,122.74,231.23Z" style="opacity: 0.34; transform-origin: 105.605px 233.853px;" class="animable"></path></g><path d="M150.11,213.5c-3.53-1.4-4.87.42-10.82,1.7-9.41,2-11-1.35-30.81-.71s-24.94,6-28.53,8.26c-1.75,1.11-7.58,7.24-12.84,13.78a104.58,104.58,0,0,1,32.74-16.9c11.21-3.44,23.63-1.95,30.16-1.24a36.06,36.06,0,0,0,17.1-2.51C149.37,215,150.13,214.14,150.11,213.5Z" style="fill: rgb(184, 115, 51); transform-origin: 108.61px 224.762px;" id="elungozze23ek" class="animable"></path><g id="elzz7pf1ctpzt"><path d="M150.11,213.5c-3.53-1.4-4.87.42-10.82,1.7-9.41,2-11-1.35-30.81-.71s-24.94,6-28.53,8.26c-1.75,1.11-7.58,7.24-12.84,13.78a104.58,104.58,0,0,1,32.74-16.9c11.21-3.44,23.63-1.95,30.16-1.24a36.06,36.06,0,0,0,17.1-2.51C149.37,215,150.13,214.14,150.11,213.5Z" style="opacity: 0.15; transform-origin: 108.61px 224.762px;" class="animable"></path></g><path d="M226.27,260.46c-7.3-3.44-9.39-6.06-10.37-9.57-2.1-7.47-6.23-25.83-10.28-45.82,1.94,2.22,14.61-.35,15.1-2.95,9.46,20.74,13.91,26.57,14.78,38.73,8.48,2,25.41,5.64,30.51,7.21,14.05,4.32,17.81,12.75,22.14,20.32l-9.81,15.55C264.53,276.13,233.57,263.89,226.27,260.46Z" style="fill: rgb(55, 71, 79); transform-origin: 246.885px 243.025px;" id="elvhz5czcqggj" class="animable"></path><g id="elkens0galhjh"><path d="M227,247.4a12.73,12.73,0,0,1,8-10.76c.21,1.33.37,2.73.48,4.21C229.08,243.06,227,247.4,227,247.4Z" style="opacity: 0.15; transform-origin: 231.24px 242.02px;" class="animable"></path></g><path d="M202.82,265.31s22.86-2.35,35.68-3.9c11.92-11,27.3-8.45,33.65-4.43a82.51,82.51,0,0,1,10.8,8.18l-13,30.6c-24.58-1.86-61.6-3.89-74.15-7.49-12.38-3-40.33-41.28-40.33-41.28-.37-2.14,7.25-9.6,11.64-9.89C179.65,246.71,198.4,255,202.82,265.31Z" style="fill: rgb(69, 90, 100); transform-origin: 219.203px 266.43px;" id="elvfvuf68gy2d" class="animable"></path><g id="el146fl5mo40e"><path d="M201,262.2a19.27,19.27,0,0,1,1.79,3.11,14.27,14.27,0,0,0-8.35,8.2S193.81,267.45,201,262.2Z" style="opacity: 0.15; transform-origin: 198.608px 267.855px;" class="animable"></path></g></g><g id="freepik--Top--inject-36" class="animable" style="transform-origin: 344.348px 265.892px;"><path d="M312.14,240.18a11.5,11.5,0,0,0-17.48-9.83h0L266.91,247h0a7.45,7.45,0,0,0-3.43,4.35c-1.73,5.27.88,12.33,5.83,15.75,3.13,2.16,6.44,2.36,8.89.89h0l27.89-17.64A11.52,11.52,0,0,0,312.14,240.18Z" style="fill: rgb(184, 115, 51); transform-origin: 287.543px 248.805px;" id="el57e3ba733l7" class="animable"></path><g id="elxt3wg2g9yaf"><path d="M312.14,240.18a11.5,11.5,0,0,0-17.48-9.83h0L266.91,247h0a7.45,7.45,0,0,0-3.43,4.35c-1.73,5.27.88,12.33,5.83,15.75,3.13,2.16,6.44,2.36,8.89.89h0l27.89-17.64A11.52,11.52,0,0,0,312.14,240.18Z" style="fill: rgb(255, 255, 255); opacity: 0.7; transform-origin: 287.543px 248.805px;" class="animable"></path></g><path d="M271.6,244.16A20.32,20.32,0,0,0,283,265l3.87-2.44s-5.4-1.44-9-8.31-2.29-12.41-2.29-12.41Z" style="fill: rgb(69, 90, 100); transform-origin: 279.157px 253.42px;" id="elezaa8lx9a5p" class="animable"></path><path d="M283.25,237.17A19.84,19.84,0,0,0,285.72,249a19.56,19.56,0,0,0,9,8.55l3.86-2.44s-5.36-1.36-8.94-8.23-2.48-12-2.48-12Z" style="fill: rgb(69, 90, 100); transform-origin: 290.862px 246.215px;" id="el6tw6ka4mk0c" class="animable"></path><path d="M312.46,232.08c-1.78-2.52-4.71-3.51-6.55-2.21l-1.86,1.31c-1.85,1.3-1.9,4.39-.13,6.91s4.71,3.51,6.55,2.21l1.86-1.31C314.18,237.69,314.23,234.6,312.46,232.08Z" style="fill: rgb(184, 115, 51); transform-origin: 308.19px 235.085px;" id="elp6dbukn0zke" class="animable"></path><g id="el2gu5kjizepy"><path d="M312.46,232.08c-1.78-2.52-4.71-3.51-6.55-2.21l-1.86,1.31c-1.85,1.3-1.9,4.39-.13,6.91s4.71,3.51,6.55,2.21l1.86-1.31C314.18,237.69,314.23,234.6,312.46,232.08Z" style="opacity: 0.5; transform-origin: 308.19px 235.085px;" class="animable"></path></g><path d="M312.46,232.08c1.77,2.52,1.72,5.61-.13,6.91s-4.77.31-6.54-2.21-1.72-5.61.12-6.91S310.68,229.56,312.46,232.08Z" style="fill: rgb(184, 115, 51); transform-origin: 309.124px 234.43px;" id="elf4qv87v1qhd" class="animable"></path><g id="elp66mjvbir6i"><path d="M312.46,232.08c1.77,2.52,1.72,5.61-.13,6.91s-4.77.31-6.54-2.21-1.72-5.61.12-6.91S310.68,229.56,312.46,232.08Z" style="opacity: 0.3; transform-origin: 309.124px 234.43px;" class="animable"></path></g><path d="M313.61,231.35c-1-1.47-2.74-2-3.82-1.29l-1.87,1.32c-1.08.76-1.11,2.56-.07,4s2.74,2.05,3.82,1.29l1.87-1.32C314.62,234.62,314.65,232.82,313.61,231.35Z" style="fill: rgb(184, 115, 51); transform-origin: 310.73px 233.373px;" id="el4gbiwe5sqrr" class="animable"></path><g id="elic9f5rkk48"><path d="M313.61,231.35c-1-1.47-2.74-2-3.82-1.29l-1.87,1.32c-1.08.76-1.11,2.56-.07,4s2.74,2.05,3.82,1.29l1.87-1.32C314.62,234.62,314.65,232.82,313.61,231.35Z" style="opacity: 0.5; transform-origin: 310.73px 233.373px;" class="animable"></path></g><path d="M313.61,231.35c1,1.47,1,3.27-.07,4s-2.78.18-3.82-1.29-1-3.27.07-4S312.58,229.88,313.61,231.35Z" style="fill: rgb(184, 115, 51); transform-origin: 311.657px 232.705px;" id="el7j8nt7tae5" class="animable"></path><g id="elh094pki6bmb"><path d="M313.61,231.35c1,1.47,1,3.27-.07,4s-2.78.18-3.82-1.29-1-3.27.07-4S312.58,229.88,313.61,231.35Z" style="opacity: 0.3; transform-origin: 311.657px 232.705px;" class="animable"></path></g><path d="M366.81,239.06l-7.51,1.2a7.13,7.13,0,0,1-8.17-5.91l-7.52-46.74,3.38-.54,7.52,46.74a3.72,3.72,0,0,0,4.25,3.07l7.5-1.21Z" style="fill: rgb(184, 115, 51); transform-origin: 355.21px 213.71px;" id="elmnhq0gsvqej" class="animable"></path><g id="elsetqpjo6o4e"><g style="opacity: 0.4; transform-origin: 355.21px 213.71px;" class="animable"><path d="M366.81,239.06l-7.51,1.2a7.13,7.13,0,0,1-8.17-5.91l-7.52-46.74,3.38-.54,7.52,46.74a3.72,3.72,0,0,0,4.25,3.07l7.5-1.21Z" id="el9qodfiarg3s" class="animable" style="transform-origin: 355.21px 213.71px;"></path></g></g><path d="M366,238.67c.48.6,1.1.5,1.38-.22a2.68,2.68,0,0,0-.39-2.39c-.48-.6-1.1-.5-1.38.22A2.68,2.68,0,0,0,366,238.67Z" style="fill: rgb(184, 115, 51); transform-origin: 366.495px 237.365px;" id="elk4ubiti035" class="animable"></path><g id="elzcl40i6i8y"><path d="M366,238.67c.48.6,1.1.5,1.38-.22a2.68,2.68,0,0,0-.39-2.39c-.48-.6-1.1-.5-1.38.22A2.68,2.68,0,0,0,366,238.67Z" style="opacity: 0.5; transform-origin: 366.495px 237.365px;" class="animable"></path></g><path d="M344,186.84c-.59.49-.5,1.11.23,1.38a2.63,2.63,0,0,0,2.38-.38.74.74,0,0,0-.22-1.38A2.71,2.71,0,0,0,344,186.84Z" style="fill: rgb(184, 115, 51); transform-origin: 345.306px 187.343px;" id="el0fdt6h3jxjqd" class="animable"></path><g id="elrwa68iyb18"><path d="M344,186.84c-.59.49-.5,1.11.23,1.38a2.63,2.63,0,0,0,2.38-.38.74.74,0,0,0-.22-1.38A2.71,2.71,0,0,0,344,186.84Z" style="opacity: 0.5; transform-origin: 345.306px 187.343px;" class="animable"></path></g><path d="M425.62,261.45a4.86,4.86,0,0,0-1.12-1.68,23.34,23.34,0,0,0-6.44-5.59c-3.41-1.73-13.05-1.44-16.83-.76-3.56.64-38,9.32-38,9.32s-8.3-5.5-19.33-13.79c-10.65-8-10.75-9.06-17.37-9l7.66,24s14.49,8.3,21,11.72c4.94,2.61,6.8,3.05,11.84,1.52,4.44-1.35,30.28-12.45,31.83-11.3,4.19,1.85,8.85,1.68,12.36,2.27,3.17.54,4.93.56,4.19-.81-.92-1.72-3-2.69-4.59-3.59-.18-.1-.38-.22-.43-.43a.54.54,0,0,1,.28-.55,1.36,1.36,0,0,1,.63-.15,44.71,44.71,0,0,1,11.94.89,2.46,2.46,0,0,0,2-.2A1.71,1.71,0,0,0,425.62,261.45Z" style="fill: rgb(242, 143, 143); transform-origin: 376.14px 259.009px;" id="elhtgddnq2h" class="animable"></path><path d="M389.69,256.15c-.95,4-.88,8.09,1.59,11.72,0,0-17.57,7-23.2,9.32s-6.42,1.95-12.92-.95-23.37-12.48-23.37-12.48l-6.35-23.82a16.92,16.92,0,0,1,6.35.23c2.63.82,13.54,9.53,19.73,13.83s11.73,8.09,11.73,8.09Z" style="fill: rgb(184, 115, 51); transform-origin: 358.36px 259.223px;" id="elbc3gb1ozk55" class="animable"></path><g id="el8ybay66hqk"><path d="M389.69,256.15c-.95,4-.88,8.09,1.59,11.72,0,0-17.57,7-23.2,9.32s-6.42,1.95-12.92-.95-23.37-12.48-23.37-12.48l-6.35-23.82a16.92,16.92,0,0,1,6.35.23c2.63.82,13.54,9.53,19.73,13.83s11.73,8.09,11.73,8.09Z" style="opacity: 0.34; transform-origin: 358.36px 259.223px;" class="animable"></path></g><g id="elrmb2ca6c88s"><path d="M361.6,261a8.46,8.46,0,0,0-4.94,5.88,17,17,0,0,1,6.59-4.76Z" style="opacity: 0.1; transform-origin: 359.955px 263.94px;" class="animable"></path></g><path d="M316.19,241.2c-1.5.23-17,2.77-17,2.77-4.54,1.34-13.48,16.92-16.33,21.07-4.12,4-7.28,3.82-7.28,3.82-.53,1-1.14,2.19-1.66,3.41-4.35,10.18-4.55,17-3.93,23.49,4.82,1.22,14.34,2.09,22.42,1.51,7.62-.54,19.11-4.55,24.36-8.45,3.42-2.52,4.9-3.75,7.7-6C336.23,280.37,339,270,337,261.27c-2.16-9.42-4-13.22-8.21-20.31C327.73,239.19,324.26,240,316.19,241.2Z" style="fill: rgb(69, 90, 100); transform-origin: 303.663px 268.693px;" id="elv9xr8sw722a" class="animable"></path><path d="M283,297.36c-6,.48-13-1.6-13-1.6s-2.56-9.39,2.69-21.6a46,46,0,0,1,2.65-5.27,6.74,6.74,0,0,0,2.92-.93l4.36-2.75C278.77,285.25,283.08,296.63,283,297.36Z" style="fill: rgb(184, 115, 51); transform-origin: 276.189px 281.321px;" id="elb3pdxd4ltni" class="animable"></path><g id="el3am6w30anvx"><path d="M280,266.85,278.21,268l-.17.09a51.57,51.57,0,0,0-5,28.47c.63.13,1.32.26,2.06.38l.17,0,.83.12.32.05.59.07a69.26,69.26,0,0,1-.53-17.34A46.58,46.58,0,0,1,280,266.85Z" style="fill: rgb(255, 255, 255); opacity: 0.7; transform-origin: 276.364px 282.015px;" class="animable"></path></g><path d="M321.16,282.06c-3.25,2-8.13,2.07-12.56.44s-7-6.72-6.87-10.71c0,0-2.51,9.11,5.54,12.59C315.82,288.08,321,283.16,321.16,282.06Z" style="fill: rgb(55, 71, 79); transform-origin: 311.26px 278.764px;" id="elpq5l93n9f2j" class="animable"></path><path d="M316,239.66c.19-1.22-1.73-4.48-4.3-7.12-2.32-2.38-3.91-5.67-5.15-12.81-.9-5.16-7.16-4.33-10.44-8.06a9,9,0,0,1-2.45-6c.09-3,2.24-5.84,1.81-8.84a8.36,8.36,0,0,0-3-4.82,57,57,0,0,1-4.4-3.79,6.59,6.59,0,0,1-2-5.24,7.53,7.53,0,0,1,3-4.42c6.62-5.41,17.12-6.09,25.14-4.07a33.59,33.59,0,0,1,18.18,11.89c2.47,3.18,4.34,6.78,6.57,10.13a27.65,27.65,0,0,0,6.16,6.91c2.06,1.54,4,2.24,5.65,4.47,2.81,3.8,2.61,8.18.6,12.45a9.16,9.16,0,0,1-3.15,3.41Z" style="fill: rgb(38, 50, 56); transform-origin: 319.466px 206.553px;" id="elmtq8zdw34qa" class="animable"></path><path d="M317.71,228.41l-2.14,13.83a22.2,22.2,0,0,0,3.64,10.21c1.83,2.69,6.11,5.93,8.16,3.54,1.25-1.58,2.92-10.23,2.92-10.23l.25-1.27Z" style="fill: rgb(242, 143, 143); transform-origin: 323.055px 242.617px;" id="elvb9j423xjk" class="animable"></path><path d="M345.8,210.9h0s-1.51,3-9.38,5.69c-6.68,2.3-9.86,3.43-14.93,11.08-2.06,2.72-2.11-.47-2.77-4.73a4.41,4.41,0,0,0-1.53-3.29c-1.23-1.05-5-1.33-6.26,2.7-.95,3.06.81,6.38,1.72,7.4a4.21,4.21,0,0,0,3.24,1.46A2.68,2.68,0,0,0,318.1,230l.54-.42,1.24,4.35a23.86,23.86,0,0,0,2.87,6.73c1.45,1.35,5.46,3.46,6.26,3.47l1.27.38c3.84,1,9.3,1.11,11.45.37s6-2.73,6.4-15.53C348.57,213.84,346.12,211.49,345.8,210.9Z" style="fill: rgb(242, 143, 143); transform-origin: 329.42px 228.13px;" id="eltx0z1w0bmj9" class="animable"></path><path d="M319.45,232.27s-.39,5.78,2.57,9.28a14.53,14.53,0,0,0,7.73,4.81l.78-1.83a32.47,32.47,0,0,1-3.16-1.19,22,22,0,0,1-3.52-2.09C320.45,238.83,319.92,233.37,319.45,232.27Z" style="fill: rgb(177, 102, 104); transform-origin: 324.982px 239.315px;" id="elk5djt2h1s1" class="animable"></path><path d="M329.55,244.32s-1.67,9.49-2.62,11.21c-.58,1.06-2.48,1-3.63.65,0,0,2.73,1.57,4.07-.19s3.16-11.46,3.16-11.46Z" style="fill: rgb(177, 102, 104); transform-origin: 326.915px 250.572px;" id="elyw68wumy6c8" class="animable"></path><path d="M334.84,226.31a1.62,1.62,0,1,1-1.64-1.67A1.65,1.65,0,0,1,334.84,226.31Z" style="fill: rgb(38, 50, 56); transform-origin: 333.22px 226.26px;" id="elpn8svt7ugs" class="animable"></path><path d="M334.37,220.65l-3.75,1.29a2.08,2.08,0,0,1,1.27-2.58A1.94,1.94,0,0,1,334.37,220.65Z" style="fill: rgb(38, 50, 56); transform-origin: 332.447px 220.599px;" id="elql2fk9oan0p" class="animable"></path><path d="M347.12,221.46l-3.77-1.29a1.91,1.91,0,0,1,2.47-1.28A2.09,2.09,0,0,1,347.12,221.46Z" style="fill: rgb(38, 50, 56); transform-origin: 345.279px 220.121px;" id="elr8x878tkdnf" class="animable"></path><path d="M346.9,225.4a1.62,1.62,0,1,1-1.64-1.67A1.65,1.65,0,0,1,346.9,225.4Z" style="fill: rgb(38, 50, 56); transform-origin: 345.28px 225.35px;" id="elqjjkw97kj9p" class="animable"></path><path d="M354.06,225.18v-.12c-.27-1.88-.59-4.22-.92-5.6-1.24-5.06-3.17-6-14.08-5.42s-17,1.81-17.7,7c-.2,1.43-.29,3.88-.37,5.85V227a6.39,6.39,0,0,0,1.89,4.76,6.31,6.31,0,0,0,4.78,1.83l3.81-.19a7.25,7.25,0,0,0,6.41-4.74c.3-.78.91-2.11,1.79-2.16s1.63,1.22,2,2c1.29,2.64,2.75,4.3,5.62,4.15l.67,0a6.49,6.49,0,0,0,6.1-7.37Zm-6.2,5.42-.67,0c-2.11.1-2.83-1.16-3.77-3.07-.78-1.59-2-3.14-3.84-3.06s-2.91,1.77-3.53,3.42a5.29,5.29,0,0,1-4.68,3.48l-3.81.19a4.41,4.41,0,0,1-4.62-4.57c.07-1.87.17-4.37.36-5.73.45-3.19,4.16-4.72,15.86-5.29s11.32.79,12.08,3.93c.31,1.29.64,3.7.89,5.52A4.54,4.54,0,0,1,347.86,230.6Z" style="fill: rgb(184, 115, 51); transform-origin: 337.554px 223.744px;" id="elv8iwoero37c" class="animable"></path><g id="elb9bdwgrhhmt"><path d="M354.06,225.18v-.12c-.27-1.88-.59-4.22-.92-5.6-1.24-5.06-3.17-6-14.08-5.42s-17,1.81-17.7,7c-.2,1.43-.29,3.88-.37,5.85V227a6.39,6.39,0,0,0,1.89,4.76,6.31,6.31,0,0,0,4.78,1.83l3.81-.19a7.25,7.25,0,0,0,6.41-4.74c.3-.78.91-2.11,1.79-2.16s1.63,1.22,2,2c1.29,2.64,2.75,4.3,5.62,4.15l.67,0a6.49,6.49,0,0,0,6.1-7.37Zm-6.2,5.42-.67,0c-2.11.1-2.83-1.16-3.77-3.07-.78-1.59-2-3.14-3.84-3.06s-2.91,1.77-3.53,3.42a5.29,5.29,0,0,1-4.68,3.48l-3.81.19a4.41,4.41,0,0,1-4.62-4.57c.07-1.87.17-4.37.36-5.73.45-3.19,4.16-4.72,15.86-5.29s11.32.79,12.08,3.93c.31,1.29.64,3.7.89,5.52A4.54,4.54,0,0,1,347.86,230.6Z" style="opacity: 0.3; transform-origin: 337.554px 223.744px;" class="animable"></path></g><g id="elg1el08ark7d"><path d="M352.13,225.45a4.54,4.54,0,0,1-4.27,5.15l-.67,0c-2.11.1-2.83-1.16-3.77-3.07-.78-1.59-2-3.14-3.84-3.06s-2.91,1.77-3.53,3.42a5.29,5.29,0,0,1-4.68,3.48l-3.81.19a4.41,4.41,0,0,1-4.62-4.57c.07-1.87.17-4.37.36-5.73.45-3.19,4.16-4.72,15.86-5.29s11.32.79,12.08,3.93C351.55,221.22,351.88,223.63,352.13,225.45Z" style="fill: rgb(55, 71, 79); opacity: 0.5; transform-origin: 337.554px 223.704px;" class="animable"></path></g><path d="M339.28,226.56l.84,7.75,5.14-1.79-4.38-5.36C340.32,226.53,339.79,226.28,339.28,226.56Z" style="fill: rgb(177, 102, 104); transform-origin: 342.27px 230.378px;" id="elv2qiad374qs" class="animable"></path><path d="M341.5,235.32c-3,.16-5-1-7.46-.14s-2.18,6.07,1,7.37c2.19.9,6,1.29,8.54-.65s3.44-7,1.76-7.57S343.58,235.22,341.5,235.32Z" style="fill: rgb(184, 115, 51); transform-origin: 339.297px 238.745px;" id="elgaadrmcln36" class="animable"></path><g id="el6qmir4doqq9"><path d="M341.5,235.32c-3,.16-5-1-7.46-.14s-2.18,6.07,1,7.37c2.19.9,6,1.29,8.54-.65s3.44-7,1.76-7.57S343.58,235.22,341.5,235.32Z" style="opacity: 0.5; transform-origin: 339.297px 238.745px;" class="animable"></path></g><path d="M341.83,235.8c-3,.15-5-1-7.46-.14s-2.18,6.06,1,7.37c2.18.89,6,1.29,8.54-.65s3.44-7,1.76-7.57S343.91,235.7,341.83,235.8Z" style="fill: rgb(184, 115, 51); transform-origin: 339.627px 239.223px;" id="el53yzlzz220d" class="animable"></path><g id="elu9r0hp91il"><path d="M341.83,235.8c-3,.15-5-1-7.46-.14s-2.18,6.06,1,7.37c2.18.89,6,1.29,8.54-.65s3.44-7,1.76-7.57S343.91,235.7,341.83,235.8Z" style="opacity: 0.3; transform-origin: 339.627px 239.223px;" class="animable"></path></g><path d="M343.61,241.32c.88-1.32.8-2.91-.17-3.55l-.91-.59c-1-.64-2.47-.08-3.34,1.25s-.79,2.91.18,3.55l.91.59C341.25,243.21,342.74,242.65,343.61,241.32Z" style="fill: rgb(55, 71, 79); transform-origin: 341.404px 239.875px;" id="elm262cgcm7x" class="animable"></path><path d="M343.61,241.32c-.87,1.33-2.36,1.89-3.33,1.25s-1-2.23-.18-3.55,2.37-1.89,3.34-1.25S344.49,240,343.61,241.32Z" style="fill: rgb(69, 90, 100); transform-origin: 341.869px 240.171px;" id="elrj0lwjomagm" class="animable"></path><path d="M292.81,306C296.9,316.39,304,333.09,306,335.24c4.36,1.63,6.53,5.32,9.32,7.62,2.46,2,4.26,2.89,2.55,3.72-1.91.93-4.61-.52-6.46-1.38-.18.3.27,1.63,1.17,2.71a19.2,19.2,0,0,0,2.42,2.35,71,71,0,0,0,5.86,4.34,2.58,2.58,0,0,1,1.29,1.51,1.69,1.69,0,0,1-1,1.65,4.79,4.79,0,0,1-2,.41,23.64,23.64,0,0,1-8.6-.55c-3.7-1.16-6.65-4-8.93-7.16-2.15-2.95-3.89-6.18-5.93-9.21-1.66-2.48-3.36-4.94-5-7.43-3.28-4.95-6.49-10-9.56-15.05-1.11-1.85-2.24-3.7-3.2-5.63s-1.8-3.36-1.86-4.82a70.08,70.08,0,0,1,.51-8.83c.33-3.88,2.62-23.74,3.87-32,2.57-16.93,6.54-21.38,17.29-23.16,5.35,5.91.15,27.78.15,27.78Z" style="fill: rgb(242, 143, 143); transform-origin: 299.111px 301.334px;" id="elyzxkt6nbti" class="animable"></path><path d="M299.15,244c-7.07.41-12.42,2.25-15.48,9.08s-3.85,14-5.46,27.41-2.71,22.76-2.81,25.79.21,3.69,2.81,8.46,13.47,20.53,13.47,20.53c2.44-3.82,6.35-7,10.33-7.61l-8.78-23.32,7.2-41.18S303.94,252.34,299.15,244Z" style="fill: rgb(184, 115, 51); transform-origin: 288.697px 289.635px;" id="eltgin6760jy" class="animable"></path><g id="el66c0e5qizpd"><path d="M299.15,244c-7.07.41-12.42,2.25-15.48,9.08s-3.85,14-5.46,27.41-2.71,22.76-2.81,25.79.21,3.69,2.81,8.46,13.47,20.53,13.47,20.53c2.44-3.82,6.35-7,10.33-7.61l-8.78-23.32,7.2-41.18S303.94,252.34,299.15,244Z" style="opacity: 0.34; transform-origin: 288.697px 289.635px;" class="animable"></path></g><g id="eljxf05tdxo"><path d="M293.23,304.31c-1.52-1.36-7-1.49-9.07-.67a11,11,0,0,1,9.43-1.4Z" style="opacity: 0.1; transform-origin: 288.875px 303.028px;" class="animable"></path></g><path d="M311.85,271.16a23.19,23.19,0,0,1-6.89-1,15.59,15.59,0,0,1-9.74-8c-3.9-8,.2-19.5,9.14-25.54.43-.3,1.07.65.64.94-8.49,5.75-12.41,16.55-8.75,24.1a14.45,14.45,0,0,0,9.05,7.39c6.36,2,14.38.83,21.44-3.13,14.38-8.05,14.55-25,14.55-25.76,0-.45,1.14-.45,1.14,0,0,.75-.17,18.38-15.13,26.76A32.07,32.07,0,0,1,311.85,271.16Z" style="fill: rgb(38, 50, 56); transform-origin: 318.087px 253.861px;" id="eli1id8jhnoe" class="animable"></path></g><g id="freepik--Bubbles--inject-36" class="animable" style="transform-origin: 382.205px 214.005px;"><g id="eltpj1qgo24qf"><circle cx="371.62" cy="233.55" r="2.31" style="fill: rgb(250, 250, 250); opacity: 0.4; transform-origin: 371.62px 233.55px;" class="animable"></circle></g><g id="elgsu1xkt6vnp"><circle cx="374.55" cy="208.15" r="1.64" style="fill: rgb(250, 250, 250); opacity: 0.4; transform-origin: 374.55px 208.15px;" class="animable"></circle></g><g id="elqndkyvzq46i"><path d="M383.44,226.44a3.63,3.63,0,1,1-3.63-3.62A3.62,3.62,0,0,1,383.44,226.44Z" style="fill: rgb(250, 250, 250); opacity: 0.4; transform-origin: 379.81px 226.45px;" class="animable"></path></g><g id="eljgdit50muxq"><path d="M375.12,217.82a5.59,5.59,0,1,1-5.59-5.59A5.59,5.59,0,0,1,375.12,217.82Z" style="fill: rgb(250, 250, 250); opacity: 0.4; transform-origin: 369.53px 217.82px;" class="animable"></path></g><g id="elbdpzkz9yeme"><circle cx="389.16" cy="203.46" r="11.31" style="fill: rgb(250, 250, 250); opacity: 0.4; transform-origin: 389.16px 203.46px;" class="animable"></circle></g></g></g></g><defs>     <filter id="active" height="200%">         <feMorphology in="SourceAlpha" result="DILATED" operator="dilate" radius="2"></feMorphology>                <feFlood flood-color="#32DFEC" flood-opacity="1" result="PINK"></feFlood>        <feComposite in="PINK" in2="DILATED" operator="in" result="OUTLINE"></feComposite>        <feMerge>            <feMergeNode in="OUTLINE"></feMergeNode>            <feMergeNode in="SourceGraphic"></feMergeNode>        </feMerge>    </filter>    <filter id="hover" height="200%">        <feMorphology in="SourceAlpha" result="DILATED" operator="dilate" radius="2"></feMorphology>                <feFlood flood-color="#ff0000" flood-opacity="0.5" result="PINK"></feFlood>        <feComposite in="PINK" in2="DILATED" operator="in" result="OUTLINE"></feComposite>        <feMerge>            <feMergeNode in="OUTLINE"></feMergeNode>            <feMergeNode in="SourceGraphic"></feMergeNode>        </feMerge>            <feColorMatrix type="matrix" values="0   0   0   0   0                0   1   0   0   0                0   0   0   0   0                0   0   0   1   0 "></feColorMatrix>    </filter></defs></svg>